<svg xmlns="http://www.w3.org/2000/svg" viewBox="0 0 486 276"><defs><style>.cls-1{fill:#00ab94;}.cls-2{fill:#62f4df;}.cls-3{fill:#035fb5;}.cls-4{fill:#d95354;}</style></defs><title>3d</title><g id="Left"><path class="cls-1" d="M181.3,196.56l-51-94.79v24.12h-7.85V87.3a7.84,7.84,0,0,1,7.63-7.84,3.94,3.94,0,0,1,2.77.93L181.3,122Z"/></g><g id="Right"><path class="cls-1" d="M354.05,196.56l-51-94.79v24.12h-7.85V87.3a7.85,7.85,0,0,1,7.64-7.84,3.91,3.91,0,0,1,2.76.93L354.05,122Z"/></g><g id="glass"><path class="cls-2" d="M181.3,122H354.05v74.6H181.3Z"/></g><g id="color"><path class="cls-3" d="M197,137.67h35.33a21.59,21.59,0,0,1,0,43.18H197Z"/><path class="cls-4" d="M338.34,180.85H303a21.59,21.59,0,1,1,0-43.18h35.33Z"/></g></svg>