<svg id="app" xmlns="http://www.w3.org/2000/svg" viewBox="0 0 486 276"><defs><style>.cls-1{fill:#ccc;}.cls-2{fill:#00eed0;}.cls-3{fill:#56edd7;}.cls-4{fill:#333;opacity:0.6;isolation:isolate;}.cls-5{fill:#4d4d4d;}</style></defs><title>app</title><g id="ph2"><path class="cls-1" d="M294.05,74.26v5.85L252,88l-41.09-7.93V74.26c0-7.45,5.47-13.48,12.22-13.48h58.7C288.58,60.78,294.05,66.81,294.05,74.26Z"/><path class="cls-1" d="M294.05,190.47v6.65c0,7.45-5.47,13.49-12.21,13.49h-58.7c-6.75,0-12.22-6-12.22-13.49v-6.65l41.57-8.74Z"/></g><g id="ph1"><path class="cls-2" d="M294.05,80.11V190.42s-83,.05-83,.05a.11.11,0,0,1-.11-.11V80.22a.11.11,0,0,1,.11-.11Z"/><polygon class="cls-3" points="294.05 132.87 294.05 190.47 223.58 190.47 283.75 80.6 283.75 80.11 294.05 80.11 294.05 116.56 294.05 132.87"/></g><g id="btn"><ellipse class="cls-4" cx="252.49" cy="200.54" rx="5.47" ry="6.04"/></g><g id="code"><path class="cls-5" d="M240.2,145.67a1.89,1.89,0,0,1-1.4-.64l-9.94-11a2.33,2.33,0,0,1,0-3.1l9.94-11a1.85,1.85,0,0,1,2.81,0,2.37,2.37,0,0,1,0,3.1l-8.54,9.43,8.54,9.43a2.36,2.36,0,0,1,0,3.11A1.89,1.89,0,0,1,240.2,145.67Z"/><path class="cls-5" d="M264.77,145.67a1.89,1.89,0,0,1-1.4-.64,2.36,2.36,0,0,1,0-3.11l8.54-9.43-8.54-9.43a2.35,2.35,0,0,1,0-3.1,1.85,1.85,0,0,1,2.81,0l9.94,11a2.35,2.35,0,0,1,0,3.1l-9.94,11A1.89,1.89,0,0,1,264.77,145.67Z"/><path class="cls-5" d="M248.51,154.46a2.58,2.58,0,0,1-.38,0,2.2,2.2,0,0,1-1.57-2.58l7-39.54a2,2,0,0,1,2.34-1.73,2.2,2.2,0,0,1,1.56,2.58l-7,39.53A2,2,0,0,1,248.51,154.46Z"/></g></svg>