<svg xmlns="http://www.w3.org/2000/svg" viewBox="0 0 486 276"><defs><style>.cls-1{fill:#57abc1;}.cls-2{fill:#226bac;}.cls-3{fill:#424a60;}.cls-4{fill:#7383bf;}.cls-5{fill:#879ad8;}.cls-6{fill:#bccef7;}</style></defs><title>camera</title><g id="body"><path class="cls-1" d="M330.44,200.53H155.56a8.09,8.09,0,0,1-8.09-8.09V72.15a8.09,8.09,0,0,1,8.09-8.09H330.44a8.09,8.09,0,0,1,8.09,8.09V192.44A8.09,8.09,0,0,1,330.44,200.53Z"/></g><g id="Top"><rect class="cls-2" x="212.29" y="50.41" width="64.82" height="13.65"/></g><g id="lens"><circle class="cls-3" cx="246.41" cy="132.29" r="54.59"/><circle class="cls-4" cx="246.41" cy="132.29" r="47.76"/><path class="cls-5" d="M259.44,132.29c0,15.62,6.15,29.43,15.63,38.15a47.63,47.63,0,0,0,0-76.29C265.59,102.86,259.44,116.68,259.44,132.29Z"/><path class="cls-5" d="M198.65,132.29a47.64,47.64,0,0,0,19.1,38.15c9.48-8.72,15.64-22.53,15.64-38.15s-6.16-29.43-15.64-38.14A47.62,47.62,0,0,0,198.65,132.29Z"/><circle class="cls-6" cx="229.04" cy="114.93" r="8.68"/></g></svg>