<svg xmlns="http://www.w3.org/2000/svg" viewBox="0 0 486 276"><defs><style>.cls-1{fill:#0071ce;}.cls-2{fill:#00eed0;}.cls-3{fill:#00ab94;}</style></defs><title>editing</title><g id="video"><path class="cls-1" d="M302.07,83.57H182.75a9.57,9.57,0,0,0-9.53,9.54V176a9.56,9.56,0,0,0,9.53,9.54H302.07a9.56,9.56,0,0,0,9.54-9.54V93.11A9.57,9.57,0,0,0,302.07,83.57ZM242.4,168.08a33.52,33.52,0,1,1,33.52-33.51A33.51,33.51,0,0,1,242.4,168.08Z"/></g><g id="play"><path class="cls-2" d="M256.56,138.16l-18.88,12.22c-3.05,2-5.55.61-5.55-3V121.78c0-3.64,2.5-5,5.55-3L256.56,131C259.62,133,259.62,136.19,256.56,138.16Z"/></g><g id="pen"><path class="cls-3" d="M312.06,125.53l-55.88,55.88,14.28,14.28,55.87-55.88Zm-6.62,25.2a3,3,0,1,1-4.3-4.3l8.29-8.28a3,3,0,1,1,4.3,4.29Z"/><polygon class="cls-2" points="252.15 199.72 256.18 181.41 270.46 195.69 252.15 199.72"/><rect class="cls-2" x="317.67" y="118.87" width="10.47" height="20.19" transform="translate(3.38 266.1) rotate(-45)"/></g></svg>