<svg xmlns="http://www.w3.org/2000/svg" viewBox="0 0 486 276"><defs><style>.cls-1{fill:#00eed0;}.cls-2{fill:#035fb5;}.cls-3{fill:#d8a555;}.cls-4{fill:#00ab94;}</style></defs><title>games</title><g id="_1" data-name="1"><path class="cls-1" d="M203.85,97.66a2.67,2.67,0,0,1-1.43-.38A40,40,0,0,0,187.23,92c-.91-.13-1.83-.2-2.75-.3h-5.34c-1.23.15-2.47.25-3.69.45a40.43,40.43,0,0,0-33.4,33.09,57.25,57.25,0,0,0-.64,6.41q-.24,3.39-.47,6.78c-.12,1.74-.22,3.48-.34,5.22-.15,2.4-.31,4.79-.47,7.19l-.33,5.32-.48,7.49L139,169q-.24,3.79-.47,7.58c-.12,1.83-.22,3.66-.34,5.48-.15,2.58-.32,5.16-.47,7.74-.09,1.63-.23,3.25-.23,4.88a16.15,16.15,0,0,0,12.91,15.62,26.26,26.26,0,0,0,6.13.26,57,57,0,0,0,8.83-1.08,52,52,0,0,0,24.86-12.61,70.76,70.76,0,0,0,15.25-20.27,94,94,0,0,0,5.8-13.77.77.77,0,0,1,.86-.62C233.12,117.45,206.05,97.66,203.85,97.66Zm-22,58.44A24.13,24.13,0,1,1,206,132,24.11,24.11,0,0,1,181.84,156.1Z"/><path d="M276.86,95.83,281,94A39.84,39.84,0,0,0,276.86,95.83Z"/><path d="M276.86,95.83l-4.24,1.84a3.18,3.18,0,0,0,1.7-.47C275.16,96.71,276,96.26,276.86,95.83Z"/></g><g id="b1"><path class="cls-2" d="M303.69,148.13a8.1,8.1,0,1,0-8.12-8.12A8,8,0,0,0,303.69,148.13Z"/><path class="cls-3" d="M287.54,115.8a8.11,8.11,0,1,0,8.1,8.09A8.05,8.05,0,0,0,287.54,115.8Z"/></g><g id="b2"><path class="cls-4" d="M188,125.11c0-3.56,0-7.12,0-10.68,0-.51-.15-.66-.66-.65H176.47c-.69,0-.7,0-.7.69v10.59c0,.81,0,.81-.79.81-3.56,0-7.12,0-10.68,0-.49,0-.64.15-.63.63,0,1.82,0,3.63,0,5.44v5.45c0,.66,0,.66.67.66H175c.79,0,.79,0,.79.77,0,3.56,0,7.12,0,10.69,0,.5.15.65.66.65,3.61,0,7.22,0,10.83,0,.69,0,.7,0,.7-.7V138.87c0-.81,0-.81.79-.82h10.63c.67,0,.67,0,.67-.67V126.55c0-.66,0-.67-.67-.67H188.74C188,125.88,188,125.88,188,125.11Z"/></g><g id="m"><path class="cls-4" d="M272.62,97.67H203.85c2.2,0,29.27,19.79,8.27,64.58q26.19,0,52.37,0h.08a66,66,0,0,1-3.71-14.11C256,113,272.62,97.67,272.62,97.67Z"/></g><g id="_2" data-name="2"><path class="cls-1" d="M338.84,189.09c-.16-2.65-.33-5.3-.48-7.94l-.33-5.48-.48-7.58c-.12-1.77-.21-3.55-.33-5.33-.15-2.51-.32-5-.47-7.52l-.33-5.23q-.24-3.67-.49-7.33l-.3-4.67c-.17-2.52-.37-5-.51-7.54a45.53,45.53,0,0,0-1.11-8A40.45,40.45,0,0,0,302.85,92.4a41.34,41.34,0,0,0-5.08-.69,2.47,2.47,0,0,1-.29-.06h-5.35c-1.44.16-2.9.29-4.34.55A40,40,0,0,0,281,94l-4.14,1.8c-.86.43-1.7.88-2.54,1.37a3.17,3.17,0,0,1-1.7.46S256,113,260.86,148.13a66.21,66.21,0,0,0,3.71,14.12,97.39,97.39,0,0,0,4.34,9.73,84.69,84.69,0,0,0,7.38,13.25,68.75,68.75,0,0,0,4.77,6.19,57.56,57.56,0,0,0,11.62,10.37,51.58,51.58,0,0,0,21,8.15,55.58,55.58,0,0,0,9.38.69,16.24,16.24,0,0,0,16-14.06,3.06,3.06,0,0,1,.07-.4V193Zm-44.09-33A24.14,24.14,0,1,1,318.88,132,24,24,0,0,1,294.75,156.1Z"/><path class="cls-1" d="M338.84,189.09c-.16-2.65-.33-5.3-.48-7.94l-.33-5.48-.48-7.58c-.12-1.77-.21-3.55-.33-5.33-.15-2.51-.32-5-.47-7.52l-.33-5.23q-.24-3.67-.49-7.33l-.3-4.67c-.17-2.52-.37-5-.51-7.54a45.53,45.53,0,0,0-1.11-8A40.45,40.45,0,0,0,302.85,92.4a41.34,41.34,0,0,0-5.08-.69,2.47,2.47,0,0,1-.29-.06h-5.35c-1.44.16-2.9.29-4.34.55A40,40,0,0,0,281,94l-4.14,1.8c-.86.43-1.7.88-2.54,1.37a3.17,3.17,0,0,1-1.7.46S256,113,260.86,148.13a66.21,66.21,0,0,0,3.71,14.12,97.39,97.39,0,0,0,4.34,9.73,84.69,84.69,0,0,0,7.38,13.25,68.75,68.75,0,0,0,4.77,6.19,57.56,57.56,0,0,0,11.62,10.37,51.58,51.58,0,0,0,21,8.15,55.58,55.58,0,0,0,9.38.69,16.24,16.24,0,0,0,16-14.06,3.06,3.06,0,0,1,.07-.4V193Zm-44.09-33A24.14,24.14,0,1,1,318.88,132,24,24,0,0,1,294.75,156.1Z"/></g></svg>