<svg id="graph" xmlns="http://www.w3.org/2000/svg" viewBox="0 0 486 276"><defs><style>.cls-1{fill:#9baaab;}.cls-2{fill:#f0353d;}.cls-3{fill:#365558;}.cls-4{fill:#4acfd9;}.cls-5{fill:#0295aa;}.cls-6{fill:#ffd1a9;}.cls-7{fill:#ff8c29;}</style></defs><title>graphics</title><g id="line"><path class="cls-1" d="M279,209.12H207a2.5,2.5,0,1,1,0-5H279a2.5,2.5,0,0,1,0,5Z"/><path class="cls-2" d="M207,197.46H193.7a2.5,2.5,0,0,0-2.5,2.5v13.32a2.5,2.5,0,0,0,2.5,2.5H207a2.49,2.49,0,0,0,2.49-2.5V200A2.49,2.49,0,0,0,207,197.46Z"/><path class="cls-2" d="M292.3,197.46H279a2.49,2.49,0,0,0-2.49,2.5v13.32a2.49,2.49,0,0,0,2.49,2.5H292.3a2.5,2.5,0,0,0,2.5-2.5V200A2.5,2.5,0,0,0,292.3,197.46Z"/></g><g id="curve"><path class="cls-3" d="M243,203.79A63.87,63.87,0,0,1,179.21,140a2.5,2.5,0,0,1,5,0,58.79,58.79,0,0,0,117.58,0,2.5,2.5,0,0,1,5,0A63.87,63.87,0,0,1,243,203.79Z"/></g><g id="pen"><path class="cls-4" d="M263.71,61a2.55,2.55,0,0,0-1.85-.81H225.1a2.5,2.5,0,0,0-2.49,2.69l3.58,48a2.48,2.48,0,0,0,2.49,2.31h29a2.51,2.51,0,0,0,2.49-2.28l4.2-48A2.52,2.52,0,0,0,263.71,61Z"/><path class="cls-5" d="M225.1,60.22a2.5,2.5,0,0,0-2.49,2.69l3.58,48a2.48,2.48,0,0,0,2.49,2.31H243v-53Z"/><path class="cls-6" d="M260.12,110.3H225.88l-6.67,42.64a2.45,2.45,0,0,0,.24,1.5l21.05,42.11V147.68a6.83,6.83,0,1,1,5,0v48.87l21.05-42.11a2.51,2.51,0,0,0,.24-1.5Z"/><path class="cls-7" d="M225.88,110.3l-6.67,42.64a2.45,2.45,0,0,0,.24,1.5l21.05,42.11V147.68A6.83,6.83,0,0,1,243,134.5V110.3Z"/></g></svg>