<svg id="market" xmlns="http://www.w3.org/2000/svg" viewBox="0 0 486 276"><defs><style>.cls-1{fill:#56edd7;}.cls-2{fill:#00eed0;}.cls-3{fill:#ed3b3b;}.cls-4{fill:#7c99fc;}.cls-5{fill:#fccbaa;}.cls-6{fill:#efc0a1;}.cls-7{fill:#057c7c;}.cls-8{fill:#00ab94;}</style></defs><title>market</title><circle class="cls-1" cx="186.02" cy="139.99" r="35.96"/><circle class="cls-1" cx="287.67" cy="85.65" r="29.57"/><circle class="cls-1" cx="287.98" cy="195.5" r="29.57"/><path class="cls-2" d="M185.59,176.11A36.69,36.69,0,0,1,160.48,166a2.37,2.37,0,0,1-.68-2.22,13.6,13.6,0,0,1,9.94-12.39c.67-.2,1.39-.3,2-.53a12.45,12.45,0,0,1,9.15-.1,15.32,15.32,0,0,0,11.71-.75,3.64,3.64,0,0,1,2.71-.22c2.3.71,4.68,1.18,7,2a13.46,13.46,0,0,1,9,12.51,2,2,0,0,1-.69,1.69A36.51,36.51,0,0,1,185.59,176.11Z"/><path class="cls-3" d="M287.58,114.53a29.23,29.23,0,0,1-18.11-6.3,2.31,2.31,0,0,1-1-2.22c.31-5.11,2.81-8.32,7.73-9.73.45-.13.91-.22,1.36-.37a8.49,8.49,0,0,1,5.94,0,12.72,12.72,0,0,0,9.33-.4,3.74,3.74,0,0,1,2.71-.12c2.65.84,5.46,1.17,7.7,3.17,2.49,2.23,3.21,5,3.31,8.19,0,.8-.57,1.12-1.07,1.51A29.17,29.17,0,0,1,287.58,114.53Z"/><path class="cls-4" d="M288.06,225.11a34.44,34.44,0,0,1-21.13-7.36,2.69,2.69,0,0,1-1.13-2.59c.35-5.94,3.3-9.68,9-11.3.52-.15,1.06-.26,1.58-.43a9.9,9.9,0,0,1,6.91,0,14.82,14.82,0,0,0,10.85-.44,4.45,4.45,0,0,1,3.15-.14c1.76.56,3.59.92,5.33,1.52a11.38,11.38,0,0,1,7.51,11.56,2.35,2.35,0,0,1-1.15,1.79A34,34,0,0,1,288.06,225.11Z"/><path class="cls-5" d="M192,120.4a10,10,0,0,1,4.58,7.76c.38,4.37.6,8.75-2.62,12.37a10.64,10.64,0,0,1-10.5,3.6,10.21,10.21,0,0,1-8.16-7c.67,0,1-.5,1.45-.91L191,122C191.44,121.55,192,121.14,192,120.4Z"/><path class="cls-5" d="M291.05,181a2.51,2.51,0,0,1,1.34.78c3.39,2.81,3.22,6.62,2.65,10.38a7.15,7.15,0,0,1-5.53,6,7.55,7.55,0,0,1-9.53-6.1C283.87,188.57,287.51,184.85,291.05,181Z"/><path class="cls-5" d="M282.85,87.78c-4.18-2.11-4.45-12.63.33-15.51a7.72,7.72,0,0,1,11.4,3.66,1.48,1.48,0,0,0-1.07.53l-9.95,10A1.93,1.93,0,0,0,282.85,87.78Z"/><path class="cls-6" d="M192,120.4c0,.74-.54,1.15-1,1.61l-14.26,14.25c-.41.41-.78.92-1.45.91a10.81,10.81,0,0,1-.78-6c.67,0,1.05-.43,1.46-.84l10.56-10.56c.36-.37.81-.69.81-1.29A8.51,8.51,0,0,1,192,120.4Z"/><path class="cls-6" d="M282.85,87.78a1.93,1.93,0,0,1,.71-1.36l9.95-10a1.48,1.48,0,0,1,1.07-.53c1,1.92.67,4,.61,6-1.47,0-2.06,1.27-2.86,2.13-1.62,1.74-3.73,3-4.83,5.27A6.21,6.21,0,0,1,282.85,87.78Z"/><path class="cls-5" d="M187.33,118.46c0,.6-.45.92-.81,1.29L176,130.31c-.41.41-.79.87-1.46.84C173.73,123.24,179.53,117.5,187.33,118.46Z"/><path class="cls-6" d="M291.05,181c-3.54,3.83-7.18,7.55-11.07,11a13.78,13.78,0,0,1,.11-6.45A7.53,7.53,0,0,1,291.05,181Z"/><path class="cls-5" d="M287.5,89.35c1.1-2.22,3.21-3.53,4.83-5.27.8-.86,1.39-2.13,2.86-2.13C294.89,86.37,291.77,89.37,287.5,89.35Z"/><path class="cls-7" d="M323.6,89.73V81.59c-.54-2.23-1-4.48-1.65-6.69a37.56,37.56,0,0,0-6.85-12.76l-3.85-3.92a38.17,38.17,0,0,0-17.93-8.38c-.64-.11-1.41.21-1.92-.46h-8.14c-2.68.94-5.56,1.16-8.21,2.22s-3.28,2.07-3,4.81c1.42,2.27,2.6,2.73,5.14,2l2.53-.75a21.77,21.77,0,0,1,7.81-1.06,27.09,27.09,0,0,1,18.74,7,13.77,13.77,0,0,1,3.55,3.51,27.56,27.56,0,0,1,6.63,18.75,28.41,28.41,0,0,1-3.85,14.25,20,20,0,0,0-4.35-6.74,20,20,0,0,0-8-4c2.62-4.79,2.46-9.75,1.47-14.79a25.36,25.36,0,0,0-2.25-4.59A15.52,15.52,0,0,0,288.88,64,16.06,16.06,0,0,0,279,66.53l-3.78,3.77a20.06,20.06,0,0,0-1.55,16.64,24.05,24.05,0,0,0,1,2.36A17.25,17.25,0,0,0,262.4,100a27.74,27.74,0,0,1-3.83-14.13,21.86,21.86,0,0,1,1-7.79c.24-.83.41-1.68.72-2.49a4,4,0,0,0-1.49-5.18c-3.14-.58-4.21.09-5.29,3.07a39.26,39.26,0,0,0-2.13,13.8l.72,5.67c.59,1.84,1.17,3.69,1.77,5.53.18.56.2,1-.45,1.28q-8,4.2-16.05,8.46c-4.79,2.73-9.64,5.35-14.6,7.78-.6.68-1,.48-1.5-.2A45.86,45.86,0,0,0,209,103.64l-3.61-2.12a47.26,47.26,0,0,0-20.5-4.75l-7.43.73a55,55,0,0,0-11.21,3.91c-2.83,1.46-3.39,2.6-2.5,5.61l1.7,1.39a5.74,5.74,0,0,0,4-.67,19.11,19.11,0,0,1,5.5-2.09,33.86,33.86,0,0,1,19.46-.57,20.44,20.44,0,0,1,5.29,1.86,16.34,16.34,0,0,1,4.37,2.21,32.61,32.61,0,0,1,12.35,12.32,16,16,0,0,1,2.21,4.32,34,34,0,0,1,1.27,24.82c-.38,2.34-1.56,4.37-2.66,6.73l-1.34-2.93A22.43,22.43,0,0,0,201.47,144c-.49-.06-1.23,0-.65-.81a20.15,20.15,0,0,0,3.05-9.52c0-1-.07-2,0-3a19,19,0,0,0-6.26-15l-4.31-2.85c-5.34-2.14-10.67-2.38-15.86.38-6.6,3.52-9.93,9.12-10.1,16.59a32.33,32.33,0,0,0,.78,8.77,25.71,25.71,0,0,0,2.63,5.28c-7.9,1.63-13.63,5.85-16.79,13.57l-1.4-3.23a34.14,34.14,0,0,1-1.26-24.77c.25-2.05,1.3-3.81,2.14-5.64a5.67,5.67,0,0,0,.55-3.87l-1.36-1.69c-3-.92-4.16-.38-5.63,2.51a47.72,47.72,0,0,0-3.59,10.11,43.39,43.39,0,0,0,3.25,27.86c.17.36.29.76.43,1.14l2.16,3.65a49.45,49.45,0,0,0,12.89,12.91l3.67,2.14a73.44,73.44,0,0,0,8.86,3.26,53.15,53.15,0,0,0,11.64,1.46l7.44-.72a51.62,51.62,0,0,0,12.54-4.61,42.34,42.34,0,0,0,14.68-13.25c.66-1,1.18-1.16,2.23-.55,3,1.73,6.08,3.34,9.12,5a27.68,27.68,0,0,1,4.28,2.33q8.44,4.22,16.63,8.89c.87.09.88.64.62,1.27a44.74,44.74,0,0,0-2.08,7.62,37.35,37.35,0,0,0,2.15,18.46c.36.93.74,1.84,1.1,2.76q1.38,2.31,2.74,4.62a37.13,37.13,0,0,0,15.22,12.47,35.48,35.48,0,0,0,26.14,1.12c.39-.13.79-.22,1.19-.32a68.22,68.22,0,0,0,6.91-3.42,51.09,51.09,0,0,0,8.61-7.81,38.21,38.21,0,0,0,7.49-17.63c0-.13.21-.23.32-.34v-8.5c-.83-2.74-1.1-5.63-2.12-8.34a5.26,5.26,0,0,0-2.84-3.32,7.15,7.15,0,0,0-2.43.26,3.94,3.94,0,0,0-1.87,4.32,20.42,20.42,0,0,1,1.43,5c1.69,7.14.41,13.81-3.16,20.57a18,18,0,0,0-8.12-9.27,6.56,6.56,0,0,1-1-.37c-1-.55-2.74-.39-3-1.31s.76-2.1,1.21-3.16c1-5.06,1.11-10-1.53-14.72a18,18,0,0,0-3.52-4.12,27.85,27.85,0,0,0-4.27-2.38,15.06,15.06,0,0,0-11.34.72c-5.49,2.79-8.2,7.38-8.42,13.48-.07,1.7.05,3.41.08,5.12a19.89,19.89,0,0,0,2,5.24,17.22,17.22,0,0,0-12.31,10.55,13.13,13.13,0,0,1-2.17-4.43c-4.09-10.08-1-23.34,7.05-30.74a29.18,29.18,0,0,1,21.38-8.11,25.25,25.25,0,0,1,9.09,1.95,4.17,4.17,0,0,0,4.83-1.73,6.42,6.42,0,0,0,0-3.11c-2-2.62-5.16-2.81-8-3.5a35.49,35.49,0,0,0-12.46-.44,60.66,60.66,0,0,0-9.17,2.6,37.78,37.78,0,0,0-14.95,12.32c-.38.55-.69.79-1.41.39-4.57-2.53-9.17-5-13.77-7.49a26.52,26.52,0,0,1-4.6-2.48c-4.14-2.16-8.28-4.34-12.43-6.49-.61-.31-.63-.64-.37-1.24a70.74,70.74,0,0,0,2.55-8.2q.36-3.72.73-7.43a46.28,46.28,0,0,0-3.25-16.89c-.32-.77-.18-1.1.55-1.48q15.25-8.11,30.48-16.3c.71-.38,1.1-.35,1.56.36.67,1,1.48,2,2.22,3l3.79,3.76A39,39,0,0,0,280.42,121l6,.68a36.21,36.21,0,0,0,22.47-7.13,35.7,35.7,0,0,0,14.16-23C323.17,90.9,322.91,90.15,323.6,89.73ZM187.33,118.46A8.51,8.51,0,0,1,192,120.4a10,10,0,0,1,4.58,7.76c.38,4.37.6,8.75-2.62,12.37a10.64,10.64,0,0,1-10.5,3.6,10.21,10.21,0,0,1-8.16-7,10.81,10.81,0,0,1-.78-6C173.73,123.24,179.53,117.5,187.33,118.46Zm23.33,47.47a36.07,36.07,0,0,1-50.18,0,2.37,2.37,0,0,1-.68-2.22,13.6,13.6,0,0,1,9.94-12.39c.67-.2,1.39-.3,2-.53a12.45,12.45,0,0,1,9.15-.1,15.32,15.32,0,0,0,11.71-.75,3.64,3.64,0,0,1,2.71-.22c2.3.71,4.68,1.18,7,2a13.46,13.46,0,0,1,9,12.51A2,2,0,0,1,210.66,165.93Zm69.43,19.67a7.53,7.53,0,0,1,11-4.58,2.51,2.51,0,0,1,1.34.78c3.39,2.81,3.22,6.62,2.65,10.38a7.15,7.15,0,0,1-5.53,6,7.55,7.55,0,0,1-9.53-6.1A13.78,13.78,0,0,1,280.09,185.6ZM268.45,215c.3-5.1,2.84-8.32,7.74-9.71.45-.13.92-.22,1.36-.37a8.49,8.49,0,0,1,5.94,0,12.74,12.74,0,0,0,9.32-.38,3.84,3.84,0,0,1,2.71-.12c1.51.48,3.08.79,4.57,1.31a9.77,9.77,0,0,1,6.46,9.93,2,2,0,0,1-1,1.54,29.29,29.29,0,0,1-18,6.35,29.6,29.6,0,0,1-18.16-6.33A2.3,2.3,0,0,1,268.45,215ZM283.18,72.27a7.72,7.72,0,0,1,11.4,3.66c1,1.92.67,4,.61,6-.3,4.42-3.42,7.42-7.69,7.4a6.21,6.21,0,0,1-4.65-1.57C278.67,85.67,278.4,75.15,283.18,72.27Zm22.28,36a28.89,28.89,0,0,1-36,0,2.31,2.31,0,0,1-1-2.22c.31-5.11,2.81-8.32,7.73-9.73.45-.13.91-.22,1.36-.37a8.49,8.49,0,0,1,5.94,0,12.72,12.72,0,0,0,9.33-.4,3.74,3.74,0,0,1,2.71-.12c2.65.84,5.46,1.17,7.7,3.17,2.49,2.23,3.21,5,3.31,8.19C306.56,107.54,306,107.86,305.46,108.25Z"/><path class="cls-8" d="M158.32,115.45a4.09,4.09,0,0,0,2.68-2.7,4.28,4.28,0,0,0-1-3.36,5.75,5.75,0,0,0-1.89-.89,3.42,3.42,0,0,0-3.49,1.54c-1,1.56-.63,3,.32,4.4A4.41,4.41,0,0,0,158.32,115.45Z"/><path class="cls-8" d="M267,64.82c1.21-1.34,1.22-2.77,0-4.8-1.23-.94-2.53-1.45-4.05-.73-2.27,1.07-2.62,3.38-.89,5.86C264.25,66.27,265.81,66.16,267,64.82Z"/><path class="cls-8" d="M307.84,169.12c-1.11,2.09-1,3.55.22,4.81s2.72,1.33,4.82.24c1-1.19,1.55-2.47.89-4C312.76,167.78,310.33,167.35,307.84,169.12Z"/></svg>