<svg xmlns="http://www.w3.org/2000/svg" viewBox="0 0 486 276"><defs><style>.cls-1{fill:#00ab94;}.cls-2{fill:#00eed0;}</style></defs><title>motion</title><g id="Hnd"><path class="cls-1" d="M154.14,39.84a13.06,13.06,0,0,0-5.3,25.58l74.65,16.87L226,59.43Z"/></g><g id="actor"><path class="cls-2" d="M243,65.71a19.6,19.6,0,1,1,19.6-19.6A19.62,19.62,0,0,1,243,65.71Z"/><path class="cls-2" d="M346,98.89a13,13,0,0,0-17.59-5.59l-75.82,42.34c-8.43-13.06-16.16-40-16.16-62.06-.74-5.16-1.24-8.91-4.57-11.51a13.76,13.76,0,0,0-14.37-1.5l-71.82,45.71a13.06,13.06,0,0,0-5.84,17.52c3.5,7,10.69,9.23,17.53,5.85l54.22-37.59c5.68,21.65,7.94,40.88,20,58.89l-31,29.39a13,13,0,0,0-2.4,15.88l28.58,46.6A13.06,13.06,0,0,0,249.49,230L225.9,192.3l31.27-29.6,83.27-46.19A13,13,0,0,0,346,98.89Z"/></g></svg>