<svg xmlns="http://www.w3.org/2000/svg" viewBox="0 0 486 276"><defs><style>.cls-1{fill:#fefefe;}.cls-2{fill:#00edce;}.cls-3{fill:#00cbb2;}.cls-4{fill:#226bac;}</style></defs><title>web</title><g id="text"><path class="cls-1" d="M208.58,120c-5.54,11.9,3,26.09,15.91,26.1,6.07,0,10.67-2.84,14.4-7.39,4.51-7.23,4.41-14.47,0-21.7C229.73,105,214,108.47,208.58,120Zm22.75,17.21c-2,1.89-4.31,2.75-8.16,2.61-2.41-.07-5-1.6-6.91-4.39a14.17,14.17,0,0,1,0-15.36,9.94,9.94,0,0,1,15.29-1.41C236.37,123.53,236.24,132.54,231.33,137.25ZM202.13,142c-5.58,4.54-12,5.71-18.48,2.67-7.15-3.34-10.71-9.46-10.69-17.36a17.57,17.57,0,0,1,17.73-17.72c5.33,0,9.75,1.81,13.07,6.12,1,1.28.94,2.13-.54,2.85a5,5,0,0,0-1.09.73c-1.64,1.48-2.72,1.86-4.46-.39-3.56-4.63-11.56-4-15.14.91a14,14,0,0,0-.08,15.82c4.09,5.66,12,6,16.2.42,1.18-1.56,1.9-.89,3-.3C205.78,138.06,205.94,138.88,202.13,142Zm61.72-31.55c-5.69-1.41-11.54-.54-17.32-.7-1.44,0-1.11,1.1-1.11,1.9,0,5.35,0,10.71,0,16.06h0c0,5.36.05,10.71,0,16.06,0,1.65.36,2.35,2.19,2.27,3.41-.15,6.84,0,10.27-.06a21.61,21.61,0,0,0,8.73-1.63c7.37-3.39,11.22-11.58,9.53-20.31C274.78,117,270.88,112.18,263.85,110.42Zm-2.43,29c-2.59.64-5.24.26-7.86.32-1.24,0-1.08-.91-1.08-1.66,0-3.43,0-6.85,0-10.27h0c0-3.34.07-6.68,0-10,0-1.49.45-2,1.94-1.93s3.16,0,4.74.07c5.93.25,9.5,3.88,10.19,10.29S266.84,138.07,261.42,139.43ZM304.9,144c.15,1.47-.4,2-1.92,2q-10.67-.1-21.33,0c-1.66,0-1.84-.77-1.83-2.09,0-5.35,0-10.71,0-16.06s.05-10.71,0-16.06c0-1.57.44-2.14,2.08-2.12,6.85.08,13.69.09,20.54,0,1.66,0,2.23.51,2,2.09a7.08,7.08,0,0,0,0,1.84c.25,1.85-.51,2.4-2.35,2.35-4.39-.13-8.78,0-13.16-.08-1.76,0-2.18.54-2.19,2.23,0,6.49-.08,6.49,6.31,6.49,2.46,0,4.92,0,7.38,0,1.27,0,1.6.46,1.65,1.69.13,4,.19,4-3.82,4-3.07,0-6.15.08-9.22,0-1.6-.05-2.44.26-2.29,2.12.2,2.34-.71,5.39.45,6.87s4.43.46,6.76.53c3,.09,6,.08,8.95,0,1.48-.05,2.12.41,1.95,1.92A11.73,11.73,0,0,0,304.9,144Z"/></g><g id="scren"><path class="cls-2" d="M238.93,182.35q-20.81,0-41.62.09c-12.29,0-24.58,0-36.88,0-2,0-2.53-.48-2.53-2.48q.07-52.16,0-104.32c0-1.43,0-2.47,2-2.46q39.39.12,78.77.1c.08,0,.17,0,.26,0q0,21.84-.07,43.69c-9.14-12-24.91-8.58-30.29,3-5.54,11.9,3,26.09,15.91,26.1,6.07,0,10.67-2.84,14.4-7.39Q238.91,160.56,238.93,182.35Zm-48.24-72.79A17.57,17.57,0,0,0,173,127.28c0,7.9,3.54,14,10.69,17.36,6.5,3,12.9,1.87,18.48-2.67,3.81-3.09,3.65-3.91-.51-6.25-1.07-.59-1.79-1.26-3,.3-4.23,5.54-12.12,5.24-16.2-.42a14,14,0,0,1,.08-15.82c3.58-4.87,11.58-5.54,15.14-.91,1.74,2.25,2.82,1.87,4.46.39a5,5,0,0,1,1.09-.73c1.48-.72,1.53-1.57.54-2.85C200.44,111.37,196,109.53,190.69,109.56Z"/><path class="cls-3" d="M238.93,182.35q0-21.79,0-43.6c4.51-7.23,4.41-14.47,0-21.7q0-21.84.07-43.69c10.35,0,20.71-.11,31.06-.12,15.72,0,31.43.05,47.14-.06,2.33,0,2.92.61,2.92,2.93q-.12,51.74,0,103.49c0,1.69.13,2.92-2.35,2.91-25.9-.09-51.8-.06-77.69-.06C239.63,182.45,239.28,182.38,238.93,182.35Zm6.47-54.67h0c0,5.36.05,10.71,0,16.06,0,1.65.36,2.35,2.19,2.27,3.41-.15,6.84,0,10.27-.06a21.61,21.61,0,0,0,8.73-1.63c7.37-3.39,11.22-11.58,9.53-20.31-1.35-7-5.25-11.83-12.28-13.59-5.69-1.41-11.54-.54-17.32-.7-1.44,0-1.11,1.1-1.11,1.9C245.39,117,245.4,122.33,245.4,127.68Zm34.44.17c0,5.35,0,10.71,0,16.06,0,1.32.17,2.1,1.83,2.09q10.67-.12,21.33,0c1.52,0,2.07-.5,1.92-2a11.73,11.73,0,0,1,0-2.37c.17-1.51-.47-2-1.95-1.92-3,.11-6,.12-8.95,0-2.33-.07-5.51,1.07-6.76-.53s-.25-4.53-.45-6.87c-.15-1.86.69-2.17,2.29-2.12,3.07.09,6.15,0,9.22,0,4,0,3.95,0,3.82-4-.05-1.23-.38-1.73-1.65-1.69-2.46.06-4.92,0-7.38,0-6.39,0-6.33,0-6.31-6.49,0-1.69.43-2.28,2.19-2.23,4.38.12,8.77,0,13.16.08,1.84,0,2.59-.5,2.35-2.35a7.08,7.08,0,0,1,0-1.84c.2-1.58-.37-2.11-2-2.09-6.85.1-13.69.09-20.54,0-1.64,0-2.1.55-2.08,2.12C279.89,117.14,279.84,122.49,279.84,127.85Z"/><path class="cls-2" d="M223.17,139.86c-2.41-.07-5-1.6-6.91-4.39a14.17,14.17,0,0,1,0-15.36,9.94,9.94,0,0,1,15.29-1.41c4.79,4.83,4.66,13.84-.25,18.55C229.35,139.14,227,140,223.17,139.86Z"/><path class="cls-3" d="M252.49,127.82c0-3.34.07-6.68,0-10,0-1.49.45-2,1.94-1.93s3.16,0,4.74.07c5.93.25,9.5,3.88,10.19,10.29s-2.49,11.83-7.91,13.19c-2.59.64-5.24.26-7.86.32-1.24,0-1.08-.91-1.08-1.66,0-3.43,0-6.85,0-10.27Z"/></g><g id="body"><path class="cls-4" d="M135.58,218.39c0-7.37,0-14.74-.14-22.11,0-1.73.76-2,2.23-2,4.46.06,8.92,0,14,0-3.9-3.36-3.82-7.45-3.81-11.6q.06-54.39,0-108.78c0-3.06.35-6,2.55-8.33s5-3.1,8.1-3.1q37.14,0,74.28,0,42.93,0,85.85-.19c4.78,0,8.34,1.61,10.61,5.85a17.43,17.43,0,0,1,.79,5.7q0,55.46,0,110.91c0,3.36-.57,6.43-3.51,9.38,4.72,0,8.87.17,13-.06,2.55-.14,3.05.82,3,3.13q-.21,9.34,0,18.7c.05,2.25-.69,2.77-2.84,2.76q-49.26-.09-98.52,0Q188.4,218.51,135.58,218.39Zm103.36-145c-.09,0-.18,0-.26,0q-39.39,0-78.77-.1c-2,0-2,1-2,2.46q0,52.16,0,104.32c0,2,.58,2.49,2.53,2.48,12.3-.08,24.59,0,36.88,0q20.82,0,41.62-.09c.35,0,.7.1,1,.1,25.89,0,51.79,0,77.69.06,2.48,0,2.35-1.22,2.35-2.91q0-51.75,0-103.49c0-2.32-.59-3-2.92-2.93-15.71.11-31.42,0-47.14.06C259.65,73.25,249.29,73.32,238.94,73.36Z"/></g></svg>