<?xml version="1.0" encoding="utf-8"?>
<!-- Generator: Adobe Illustrator 25.4.0, SVG Export Plug-In . SVG Version: 6.00 Build 0)  -->
<svg version="1.1" id="Layer_1" xmlns="http://www.w3.org/2000/svg" xmlns:xlink="http://www.w3.org/1999/xlink" x="0px" y="0px"
	 viewBox="0 0 263 263" style="enable-background:new 0 0 263 263;" xml:space="preserve">
<style type="text/css">
	.st0{opacity:4.000000e-02;fill:#314D8C;enable-background:new    ;}
	.st1{fill:#314D8C;}
	.st2{opacity:0.1;fill:#314D8C;enable-background:new    ;}
	.st3{opacity:0.3;fill:#314D8C;enable-background:new    ;}
</style>
<path class="st0" d="M131.5,263c72.6,0,131.5-58.9,131.5-131.5C263,58.9,204.1,0,131.5,0C58.9,0,0,58.9,0,131.5
	C0,204.1,58.9,263,131.5,263z"/>
<path class="st1" d="M155.4,127.8v51.8H51.7v-51.8c0-12.9,4.8-25.2,13.4-34.8c8.6-9.5,20.5-15.5,33.3-16.8c1.7-0.2,3.4-0.3,5.1-0.2
	c6.8,0,13.5,1.3,19.8,3.9c6.3,2.6,12,6.4,16.8,11.2c4.8,4.8,8.6,10.5,11.2,16.8C154,114.2,155.3,120.9,155.4,127.8L155.4,127.8z"/>
<path class="st2" d="M247.4,127.8v51.8h-92v-51.8c0-6.8-1.3-13.5-3.9-19.8c-2.6-6.3-6.4-12-11.2-16.8c-4.8-4.8-10.5-8.6-16.8-11.2
	c-6.3-2.6-13-3.9-19.8-3.9h92c13.7,0,26.9,5.5,36.6,15.2C241.9,100.9,247.4,114,247.4,127.8z"/>
<path class="st2" d="M155.3,179.5H15.6v13.8h139.7V179.5z"/>
<path class="st2" d="M188,179.6H168v77.9H188V179.6z"/>
<path class="st3" d="M200.3,179.6h-12.3v77.9h12.3V179.6z"/>
<path class="st1" d="M168,197.3h19.9l12.3,6.5v-24.2H168V197.3z"/>
</svg>
