<svg xmlns="http://www.w3.org/2000/svg" viewBox="0 0 31.88 32.27"><g id="Layer_2" data-name="Layer 2"><g id="Layer_1-2" data-name="Layer 1"><path d="M26.64,0s0,.05.07.05a5.26,5.26,0,0,1,1.65.41,5.63,5.63,0,0,1,1.5.91,5.79,5.79,0,0,1,1.45,1.88A5.51,5.51,0,0,1,31.83,5a7.62,7.62,0,0,1,.05,1V26.63a5.62,5.62,0,0,1-.47,2.21,5.72,5.72,0,0,1-1.48,2,5.58,5.58,0,0,1-2.67,1.3,5.43,5.43,0,0,1-1.14.1H5.44a5.11,5.11,0,0,1-1.85-.39A5.9,5.9,0,0,1,.7,29.33a5.57,5.57,0,0,1-.64-1.89A3.79,3.79,0,0,1,0,26.77V5.4A4.81,4.81,0,0,1,.21,4.15a5.78,5.78,0,0,1,1-2A5.67,5.67,0,0,1,3,.68a6.06,6.06,0,0,1,1.8-.6c.11,0,.23,0,.34,0s.07,0,.07,0ZM29,19.14c-.16.18-.3.39-.47.57A7.3,7.3,0,0,1,26,21.39c-.31.13-.62.23-1,.34A3.79,3.79,0,0,1,26.7,23.5l.1-.12a11.7,11.7,0,0,0,1.74-2.9A8.78,8.78,0,0,0,29,19.15s0,0,0,0S29,19.12,29,19.14ZM13.32,31.86l0-.11a54.27,54.27,0,0,0,.93-5.8c.13-1.29.21-2.58.23-3.87a46,46,0,0,0-.31-6.21c-.15-1.35-.36-2.69-.51-4a7.65,7.65,0,0,1,0-1.79A1.43,1.43,0,0,1,14.9,8.68a4.82,4.82,0,0,1,2.17.08,1.9,1.9,0,0,1,1.4,1.3,3.17,3.17,0,0,1,.15.86,9.58,9.58,0,0,1-.36,2.77c-.3,1.25-.7,2.47-1.09,3.69a50.23,50.23,0,0,0-1.45,5.28,13.12,13.12,0,0,0-.26,3.9,6.76,6.76,0,0,0,.37,1.6c0,.07.06.08.13.08l.33,0a17.34,17.34,0,0,0,3.13-.43s.06,0,.07,0l-.12,0c-.28-.09-.57-.13-.84-.23a2,2,0,0,1-1.24-1.17,3,3,0,0,1-.14-1.3,9.39,9.39,0,0,1,.47-2.1c.36-1.14.81-2.26,1.19-3.39A14.49,14.49,0,0,0,19.47,17c.13-.86.23-1.72.39-2.57a5.06,5.06,0,0,1,.42-1.37,1.63,1.63,0,0,1,1.14-.92,4.63,4.63,0,0,1,1.66,0c.74.09,1.47.25,2.2.41a7.06,7.06,0,0,1,2.32.86,4.82,4.82,0,0,1,1.95,2l0,0c0-.34,0-.66,0-1a13.37,13.37,0,0,0-.82-4,12.65,12.65,0,0,0-6.08-7A14,14,0,0,0,16.88,2a15.65,15.65,0,0,0-4.21.29,12.6,12.6,0,0,0-7.09,4A13.74,13.74,0,0,0,2.37,17.62a8.52,8.52,0,0,0,1.55,3.75,17.26,17.26,0,0,0,2.66,2.81c1.09,1,2.25,1.83,3.38,2.74a13.43,13.43,0,0,1,2.12,2A5.43,5.43,0,0,1,13.19,31,4.15,4.15,0,0,1,13.32,31.86ZM21,20.68a2.4,2.4,0,0,0,.69-.1,5.06,5.06,0,0,0,2.45-1.51A3.78,3.78,0,0,0,25,17.56,1.6,1.6,0,0,0,24.75,16a2.1,2.1,0,0,0-1-.63,6,6,0,0,0-1.93-.32c-.08,0-.07,0-.08.1,0,.25-.08.5-.14.75-.23,1-.53,1.93-.79,2.89-.15.56-.28,1.13-.38,1.7,0,.09,0,.16.1.16S20.82,20.68,21,20.68Zm.93,6.2a1.08,1.08,0,0,0,.36,0,12.8,12.8,0,0,0,2.52-1.5.17.17,0,0,0,.08-.16,1.38,1.38,0,0,0-.52-1.1,4.32,4.32,0,0,0-1.19-.74,11.63,11.63,0,0,0-2.9-.84c-.1,0-.11,0-.12.1-.08.59-.17,1.18-.26,1.77s-.17,1.19-.25,1.79a.12.12,0,0,0,.06.15A5.21,5.21,0,0,0,21.9,26.88Zm-8.6,5a0,0,0,0,0,0,0v0Z"/><path d="M13.32,31.86a4.15,4.15,0,0,0-.13-.87,5.43,5.43,0,0,0-1.11-2.06,13.43,13.43,0,0,0-2.12-2C8.83,26,7.67,25.14,6.58,24.18a17.26,17.26,0,0,1-2.66-2.81,8.52,8.52,0,0,1-1.55-3.75A13.74,13.74,0,0,1,5.58,6.34a12.6,12.6,0,0,1,7.09-4A15.65,15.65,0,0,1,16.88,2a14,14,0,0,1,5.78,1.53,12.65,12.65,0,0,1,6.08,7,13.37,13.37,0,0,1,.82,4c0,.33,0,.65,0,1l0,0a4.82,4.82,0,0,0-1.95-2,7.06,7.06,0,0,0-2.32-.86c-.73-.16-1.46-.32-2.2-.41a4.63,4.63,0,0,0-1.66,0,1.63,1.63,0,0,0-1.14.92,5.06,5.06,0,0,0-.42,1.37c-.16.85-.26,1.71-.39,2.57a14.49,14.49,0,0,1-.66,2.51c-.38,1.13-.83,2.25-1.19,3.39a9.39,9.39,0,0,0-.47,2.1,3,3,0,0,0,.14,1.3,2,2,0,0,0,1.24,1.17c.27.1.56.14.84.23l.12,0c0,.05,0,0-.07,0a17.34,17.34,0,0,1-3.13.43l-.33,0c-.07,0-.1,0-.13-.08a6.76,6.76,0,0,1-.37-1.6,13.12,13.12,0,0,1,.26-3.9,50.23,50.23,0,0,1,1.45-5.28c.39-1.22.79-2.44,1.09-3.69a9.58,9.58,0,0,0,.36-2.77,3.17,3.17,0,0,0-.15-.86,1.9,1.9,0,0,0-1.4-1.3,4.82,4.82,0,0,0-2.17-.08A1.43,1.43,0,0,0,13.65,10a7.65,7.65,0,0,0,0,1.79c.15,1.35.36,2.69.51,4a46,46,0,0,1,.31,6.21c0,1.29-.1,2.58-.23,3.87a54.27,54.27,0,0,1-.93,5.8Zm.55-26.33a2,2,0,1,0,2-2A2,2,0,0,0,13.87,5.53Z" style="fill:#fff"/><path d="M21,20.68c-.15,0-.28,0-.41,0s-.12-.07-.1-.16c.1-.57.23-1.14.38-1.7.26-1,.56-1.91.79-2.89.06-.25.1-.5.14-.75,0-.05,0-.11.08-.1a6,6,0,0,1,1.93.32,2.1,2.1,0,0,1,1,.63A1.6,1.6,0,0,1,25,17.56a3.78,3.78,0,0,1-.91,1.51,5.06,5.06,0,0,1-2.45,1.51A2.4,2.4,0,0,1,21,20.68Z" style="fill:#fff"/><path d="M21.9,26.88a5.21,5.21,0,0,1-2.22-.56.12.12,0,0,1-.06-.15c.08-.6.16-1.19.25-1.79s.18-1.18.26-1.77c0-.07,0-.12.12-.1a11.63,11.63,0,0,1,2.9.84,4.32,4.32,0,0,1,1.19.74,1.38,1.38,0,0,1,.52,1.1.17.17,0,0,1-.08.16,12.8,12.8,0,0,1-2.52,1.5A1.08,1.08,0,0,1,21.9,26.88Z" style="fill:#fff"/><path d="M29,19.15a8.78,8.78,0,0,1-.48,1.33,11.7,11.7,0,0,1-1.74,2.9l-.1.12A3.79,3.79,0,0,0,25,21.73c.34-.11.65-.21,1-.34a7.3,7.3,0,0,0,2.56-1.68c.17-.18.31-.39.47-.57Z" style="fill:#fff"/><path d="M13.87,5.53a2,2,0,1,1,2,2A2,2,0,0,1,13.87,5.53Z"/></g></g></svg>