<svg id="Layer_1" data-name="Layer 1" xmlns="http://www.w3.org/2000/svg" viewBox="0 0 110.83 20"><path d="M7.76,19.25a3.06,3.06,0,0,0-.07-.54A3.41,3.41,0,0,0,7,17.43a8.15,8.15,0,0,0-1.31-1.25c-.7-.56-1.43-1.1-2.1-1.7a10.87,10.87,0,0,1-1.65-1.74,5.21,5.21,0,0,1-1-2.33,7.89,7.89,0,0,1-.1-1.88A8.36,8.36,0,0,1,3,3.41,7.85,7.85,0,0,1,7.36.9,9.93,9.93,0,0,1,10,.72a8.5,8.5,0,0,1,3.59,1A7.78,7.78,0,0,1,17.33,6a8.24,8.24,0,0,1,.51,2.46c0,.2,0,.41,0,.62l0,0a3,3,0,0,0-1.21-1.27,4.47,4.47,0,0,0-1.44-.53c-.46-.1-.91-.2-1.37-.26a3.24,3.24,0,0,0-1,0,1,1,0,0,0-.71.57,3.57,3.57,0,0,0-.26.86c-.1.53-.16,1.06-.24,1.59a9.43,9.43,0,0,1-.41,1.56c-.24.7-.51,1.39-.74,2.1A6.53,6.53,0,0,0,10.14,15a1.88,1.88,0,0,0,.09.81,1.23,1.23,0,0,0,.76.72c.17.06.36.09.53.14l.07,0s0,0,0,0A11.59,11.59,0,0,1,9.61,17H9.4A.07.07,0,0,1,9.32,17a4.19,4.19,0,0,1-.23-1,8.19,8.19,0,0,1,.16-2.42,30.6,30.6,0,0,1,.91-3.28c.23-.76.48-1.51.67-2.29a5.84,5.84,0,0,0,.22-1.72A1.6,1.6,0,0,0,11,5.72a1.17,1.17,0,0,0-.87-.81,3.23,3.23,0,0,0-1.35,0A.89.89,0,0,0,8,5.71,4.58,4.58,0,0,0,8,6.82c.09.83.23,1.67.32,2.51a27.51,27.51,0,0,1,.19,3.85c0,.8-.06,1.6-.14,2.4a31.37,31.37,0,0,1-.58,3.6A.19.19,0,0,1,7.76,19.25ZM8.11,2.91A1.21,1.21,0,0,0,9.33,4.14,1.23,1.23,0,1,0,8.11,2.91Z" style="fill:#2e395a"/><path d="M12.51,12.31l-.25,0c-.08,0-.08,0-.07-.1.07-.35.14-.7.24-1,.16-.6.35-1.19.49-1.8A3.4,3.4,0,0,0,13,8.88s0-.07.05-.07a4.08,4.08,0,0,1,1.2.2,1.35,1.35,0,0,1,.6.4,1,1,0,0,1,.16,1,2.25,2.25,0,0,1-.56.94,3.18,3.18,0,0,1-1.52.94A1.59,1.59,0,0,1,12.51,12.31Z" style="fill:#2e395a"/><path d="M13.09,16.16a3.32,3.32,0,0,1-1.38-.35s-.05-.05,0-.09c.05-.37.11-.74.16-1.11s.11-.73.16-1.1c0,0,0-.08.07-.07a7.65,7.65,0,0,1,1.81.52,2.94,2.94,0,0,1,.73.47.82.82,0,0,1,.32.68.13.13,0,0,1,0,.1,8,8,0,0,1-1.57.93A.82.82,0,0,1,13.09,16.16Z" style="fill:#2e395a"/><path d="M17.51,11.36a6.34,6.34,0,0,1-.3.83A7.48,7.48,0,0,1,16.13,14l-.07.07A2.36,2.36,0,0,0,15,13c.21-.07.41-.13.6-.21a4.66,4.66,0,0,0,1.59-1l.29-.36Z" style="fill:#2f3a5b"/><path d="M8.11,2.91A1.23,1.23,0,1,1,9.33,4.14,1.21,1.21,0,0,1,8.11,2.91Z" style="fill:#f8a731"/><path d="M21.6,14.64V5.27a.3.3,0,0,1,.34-.34h1.3c.24,0,.36.11.36.34v9.37c0,.24-.12.35-.36.35h-1.3C21.71,15,21.6,14.88,21.6,14.64Z" style="fill:#2e395a"/><path d="M29.85,15H26.14a.3.3,0,0,1-.35-.35V5.27c0-.23.11-.34.35-.34h3.61a5.21,5.21,0,0,1,2.88.63,2.23,2.23,0,0,1,.93,2A2.3,2.3,0,0,1,33.18,9a1.82,1.82,0,0,1-1,.7,2.2,2.2,0,0,1,1.69,2.42,2.5,2.5,0,0,1-1,2.22A5.37,5.37,0,0,1,29.85,15ZM27.76,9.07h2a2.65,2.65,0,0,0,1.46-.3,1.15,1.15,0,0,0,.43-1,1.06,1.06,0,0,0-.43-1,2.85,2.85,0,0,0-1.49-.28H27.76Zm0,4.32h2a3.25,3.25,0,0,0,1.68-.31A1.23,1.23,0,0,0,31.91,12a1.2,1.2,0,0,0-.47-1.07,3.11,3.11,0,0,0-1.64-.31h-2Z" style="fill:#2e395a"/><path d="M35.85,7.46H37a.31.31,0,0,1,.35.3l.07,1.13a2.53,2.53,0,0,1,.84-1,2.27,2.27,0,0,1,1.43-.46.32.32,0,0,1,.22.06.31.31,0,0,1,.07.23V9c0,.17-.09.25-.28.25h-.45a1.6,1.6,0,0,0-1.3.63,2.3,2.3,0,0,0-.52,1.5v3.29c0,.22-.11.32-.33.32H35.85c-.23,0-.34-.1-.34-.32V7.79C35.51,7.57,35.62,7.46,35.85,7.46Z" style="fill:#2e395a"/><path d="M47.11,10v4.67c0,.22-.12.32-.35.32H45.7c-.2,0-.31-.09-.32-.27L45.32,14a2.86,2.86,0,0,1-2.6,1.17,2.63,2.63,0,0,1-1.79-.57,2,2,0,0,1-.66-1.61,2.25,2.25,0,0,1,.24-1.07,1.94,1.94,0,0,1,.65-.71,3.52,3.52,0,0,1,1.08-.43,8.58,8.58,0,0,1,1.36-.23c.46-.05,1-.07,1.66-.08v-.33a1.22,1.22,0,0,0-.38-1,2,2,0,0,0-1.25-.31,5.79,5.79,0,0,0-2.14.43.31.31,0,0,1-.42-.2l-.26-.79a.32.32,0,0,1,.2-.4,7.29,7.29,0,0,1,2.86-.54C46,7.29,47.11,8.19,47.11,10Zm-1.85,2.15v-.62c-.53,0-1,.05-1.31.08a5.87,5.87,0,0,0-1,.19,1.35,1.35,0,0,0-.68.39,1,1,0,0,0,.11,1.36,1.43,1.43,0,0,0,.93.27,2,2,0,0,0,1.44-.46A1.58,1.58,0,0,0,45.26,12.15Z" style="fill:#2e395a"/><path d="M55.79,10.08v4.59c0,.22-.11.32-.33.32H54.23c-.23,0-.35-.1-.35-.32V10.42a1.66,1.66,0,0,0-.32-1.13,1.32,1.32,0,0,0-1.06-.37,1.61,1.61,0,0,0-1.24.46,1.78,1.78,0,0,0-.44,1.27v4a.28.28,0,0,1-.32.32H49.27c-.22,0-.33-.1-.33-.32V7.79a.29.29,0,0,1,.33-.33H50.4c.2,0,.31.09.32.28l.08.75a2.56,2.56,0,0,1,2.4-1.2A2.43,2.43,0,0,1,55.14,8,3,3,0,0,1,55.79,10.08Z" style="fill:#2e395a"/><path d="M63,14.72l0-.78a2,2,0,0,1-1,.9,3.43,3.43,0,0,1-1.47.31,2.92,2.92,0,0,1-2.36-1,4.44,4.44,0,0,1-.83-2.94,4.44,4.44,0,0,1,.83-2.94,2.92,2.92,0,0,1,2.36-1,3.28,3.28,0,0,1,1.43.31,2,2,0,0,1,1,.87V5.24c0-.21.11-.31.33-.31h1.23c.23,0,.34.1.34.31v9.43c0,.22-.11.32-.34.32H63.34C63.13,15,63,14.9,63,14.72Zm-.08-3.5q0-2.4-1.86-2.4a1.64,1.64,0,0,0-1.35.56,3,3,0,0,0-.45,1.84,3,3,0,0,0,.45,1.84,1.64,1.64,0,0,0,1.35.56Q62.91,13.62,62.91,11.22Z" style="fill:#2e395a"/><path d="M73.93,4.93h1.82a.47.47,0,0,1,.48.28l3.33,9.33a.41.41,0,0,1,0,.33.29.29,0,0,1-.26.12H77.81a.42.42,0,0,1-.44-.31l-.58-1.87H72.9l-.57,1.87a.42.42,0,0,1-.43.31H70.41a.3.3,0,0,1-.28-.13.32.32,0,0,1,0-.32L73.45,5.2A.47.47,0,0,1,73.93,4.93Zm-.51,6.19h2.84L74.88,6.9h0Z" style="fill:#2e395a"/><path d="M82.88,7.6h1.45a.29.29,0,0,1,.33.33v.8a.29.29,0,0,1-.33.33H82.88v5.63q0,.3-.33.3h-1.2c-.23,0-.34-.1-.34-.3V9.06h-.77a.29.29,0,0,1-.32-.33v-.8a.29.29,0,0,1,.32-.33H81V7c0-1.47.77-2.2,2.32-2.2a3.92,3.92,0,0,1,1.1.14.34.34,0,0,1,.27.33V6a.33.33,0,0,1-.07.24.23.23,0,0,1-.22.07l-.67-.07a.89.89,0,0,0-.65.21.94.94,0,0,0-.21.68Z" style="fill:#2e395a"/><path d="M86.24,7.46h1.13a.31.31,0,0,1,.35.3l.07,1.13a2.53,2.53,0,0,1,.84-1,2.27,2.27,0,0,1,1.43-.46.3.3,0,0,1,.22.06s.07.11.07.23V9c0,.17-.09.25-.27.25h-.46a1.6,1.6,0,0,0-1.3.63,2.3,2.3,0,0,0-.52,1.5v3.29c0,.22-.11.32-.33.32H86.24c-.22,0-.34-.1-.34-.32V7.79A.3.3,0,0,1,86.24,7.46Z" style="fill:#2e395a"/><path d="M93.62,5.29v1c0,.22-.1.33-.31.33H92a.29.29,0,0,1-.32-.33v-1A.29.29,0,0,1,92,5h1.27C93.52,5,93.62,5.07,93.62,5.29Zm0,2.5v6.88c0,.22-.11.32-.33.32H92.05c-.22,0-.33-.1-.33-.32V7.79a.29.29,0,0,1,.33-.33h1.24A.29.29,0,0,1,93.62,7.79Z" style="fill:#2e395a"/><path d="M96.26,14.13a3.93,3.93,0,0,1-1-2.92,3.87,3.87,0,0,1,1-2.91,3.72,3.72,0,0,1,2.75-1,4.23,4.23,0,0,1,2.2.48.34.34,0,0,1,.19.45L101,9a.32.32,0,0,1-.47.16,3.31,3.31,0,0,0-1.34-.28,2,2,0,0,0-1.53.58,2.51,2.51,0,0,0-.55,1.76A2.58,2.58,0,0,0,97.7,13a1.94,1.94,0,0,0,1.5.59,3.25,3.25,0,0,0,1.47-.34q.33-.15.45.15l.34.79c.07.16,0,.31-.2.44a4,4,0,0,1-2.19.53A3.83,3.83,0,0,1,96.26,14.13Z" style="fill:#2e395a"/><path d="M109.22,10v4.67c0,.22-.11.32-.34.32h-1.06a.29.29,0,0,1-.33-.27l0-.77a2.88,2.88,0,0,1-2.61,1.17,2.61,2.61,0,0,1-1.78-.57,2,2,0,0,1-.66-1.61,2.25,2.25,0,0,1,.24-1.07,1.86,1.86,0,0,1,.65-.71,3.45,3.45,0,0,1,1.07-.43,9,9,0,0,1,1.36-.23c.47-.05,1-.07,1.67-.08v-.33a1.2,1.2,0,0,0-.39-1,2,2,0,0,0-1.24-.31,5.84,5.84,0,0,0-2.15.43.3.3,0,0,1-.41-.2l-.26-.79c-.06-.17,0-.3.2-.4A7.25,7.25,0,0,1,106,7.29C108.15,7.29,109.22,8.19,109.22,10Zm-1.84,2.15v-.62c-.54,0-1,.05-1.32.08a6.07,6.07,0,0,0-1,.19,1.39,1.39,0,0,0-.68.39.92.92,0,0,0-.21.63.89.89,0,0,0,.33.73,1.43,1.43,0,0,0,.93.27,2,2,0,0,0,1.44-.46A1.61,1.61,0,0,0,107.38,12.15Z" style="fill:#2e395a"/></svg>