<?xml version="1.0" encoding="utf-8"?>
<!-- Generator: Adobe Illustrator 25.4.0, SVG Export Plug-In . SVG Version: 6.00 Build 0)  -->
<svg version="1.1" id="Layer_1" xmlns="http://www.w3.org/2000/svg" xmlns:xlink="http://www.w3.org/1999/xlink" x="0px" y="0px"
	 viewBox="0 0 336.2 522" style="enable-background:new 0 0 336.2 522;" xml:space="preserve">
<style type="text/css">
	.st0{fill:#9F8AF9;}
	.st1{fill:#F08F89;}
	.st2{fill:#7B98FB;}
	.st3{fill:#F0CA63;}
	.st4{fill:#00C0B1;}
</style>
<g id="Layer_2_00000047046720178217742780000000145854833077988271_">
	<g id="Layer_1-2">
		<path class="st0" d="M6.2,232.4h0.5c2.1,0.2,4.1,0.6,6.1,1.3c2.7,0.9,5.3,2.2,7.6,3.9c1.8,1.3,3.4,2.8,4.9,4.4
			c0.1,0.1,0.1,0.1,0.2,0.1l5.8,1c0.3,0,0.6,0.2,0.8,0.4l3.8,3.5l1.7,1.6c0.3,0.2,0.4,0.6,0.2,0.9c-0.1,0.3-0.3,0.6-0.7,0.6
			l-4.1,0.6l-1,0.2l0.7,0.6c0.4,0.3,0.4,0.9,0.1,1.3c0,0,0,0,0,0l-0.1,0.1l-0.3,0.3l1.4,1.5c0.4,0.4,0.4,1,0,1.4v0l-4.2,4.6
			c-0.4,0.4-0.9,0.4-1.3,0.1l-0.1-0.1l-0.6-0.5l-1-1l-0.2,0.2c-0.2,0.2-0.5,0.3-0.7,0.3c-0.2,0-0.5-0.1-0.6-0.3l-0.7-0.6
			c0,0.4-0.1,0.7-0.1,1c-0.2,1.4-0.3,2.8-0.5,4.1c0,0.5-0.4,0.9-0.9,0.9c-0.3,0-0.5-0.1-0.7-0.3l-5.6-5.4c-0.2-0.2-0.3-0.4-0.3-0.6
			c-0.4-2-0.8-4.1-1.2-6.1c0-0.2-0.2-0.5-0.3-0.6c-3-2.7-5.5-6-7.1-9.8c-1-2.2-1.7-4.6-1.9-7c0-0.3-0.1-0.6-0.1-0.9v-1.2
			C5.6,232.9,5.9,232.6,6.2,232.4z M34.8,248.7L34.8,248.7l-0.2-0.2L31,245c-0.1-0.1-0.1-0.1-0.2-0.1l-3.4-0.6
			c0.6,0.8,1.1,1.6,1.7,2.5s1,1.7,1.5,2.6L34.8,248.7z M28.8,259c1.1-1.2,2.1-2.3,3.2-3.4c-0.3-0.3-0.5-0.6-0.8-0.9l-3.2,3.4
			L28.8,259z M25.6,257.7c1.7-1.8,3.4-3.6,5.1-5.4l-0.8-0.7l-5.1,5.4L25.6,257.7z M17.3,255.1c0.2,1,0.4,1.9,0.6,2.9
			c0,0.1,0.1,0.2,0.1,0.3l3.9,3.8l0.1,0.1c0.1-0.5,0.1-1,0.2-1.5c0.1-1,0.2-1.9,0.3-2.9c0-0.1,0-0.2-0.1-0.2c-1.8-1-3.5-2.1-5.1-3.3
			l-0.1-0.1C17.2,254.5,17.3,254.8,17.3,255.1L17.3,255.1z M9.2,241.4c1.6,3.6,3.9,6.8,6.8,9.4c2.2,1.9,4.6,3.6,7.2,5
			c0.1,0.1,0.2,0.1,0.2,0l0,0l5.2-5.5c0.1-0.1,0.1-0.2,0-0.2c-2.9-5.7-7.6-10.4-13.4-13.3c-0.7-0.4-1.5-0.6-2.2-0.9H13
			c-0.6,2.1-2.2,3.7-4.3,4.3C8.8,240.5,9,241,9.2,241.4z M8.1,238.3c1.5-0.3,2.8-1.5,3.1-3.1c-1.2-0.4-2.5-0.6-3.8-0.8
			C7.5,235.7,7.7,237,8.1,238.3L8.1,238.3z"/>
		<path class="st0" d="M40.3,263.7c-0.3,0.1-0.6,0.1-0.9-0.1c-0.3-0.3-0.7-0.7-1-1l-4.5-4.4c-0.3-0.3-0.3-0.8,0-1.1
			c0.3-0.3,0.7-0.3,1-0.1l0.1,0.1l0.8,0.8l4.7,4.6c0.2,0.2,0.3,0.4,0.3,0.7C40.8,263.3,40.6,263.6,40.3,263.7z"/>
		<path class="st0" d="M31.3,260.8l3,3.2l1.9,2c0.3,0.3,0.2,0.8-0.1,1.1c-0.2,0.2-0.6,0.2-0.9,0.1l-0.1-0.1l-4.9-5.2
			c-0.2-0.2-0.3-0.4-0.3-0.7v-0.1c0.1-0.4,0.5-0.7,0.9-0.6c0,0,0,0,0,0C31.1,260.6,31.2,260.7,31.3,260.8z"/>
		<path class="st0" d="M31.9,259.4c0-0.1,0-0.1,0-0.2c0.1-0.4,0.6-0.6,1-0.5c0.1,0,0.3,0.1,0.4,0.2l3,3.2c0.6,0.7,5.7,5.7,6.3,6.4
			c0.3,0.3,0.3,0.8,0,1.1l0,0c-0.1,0.4-0.8,0.3-1.1-0.1c-1.7-1.7-7.7-7.8-9.3-9.5C31.9,259.9,31.8,259.7,31.9,259.4z"/>
		<path class="st0" d="M16.6,239.5c2.2,0,4,1.8,4,4s-1.8,4-4,4s-4-1.8-4-4S14.4,239.5,16.6,239.5z M16.6,245.7c1.2,0,2.1-1,2.2-2.1
			c0-1.2-1-2.2-2.1-2.2s-2.2,1-2.2,2.2l0,0C14.4,244.7,15.4,245.7,16.6,245.7L16.6,245.7z"/>
		<path class="st1" d="M30.3,446l0.4-7c4.4-1.7,6-3.9,5.5-7.3c-0.6-3.3-3.7-5.5-7-4.9c-2.3,0.4-4.2,2.1-4.8,4.4
			c-0.9,3.2,0.6,5.6,4.8,7.8l-0.4,8.3c2.3,0.1,4.5,0.3,6.7,0.3c1.2,0,1.9,0.2,2.2,1.6c0.8,2.9,3.6,4.6,6.5,4.1
			c3.3-0.3,5.8-3.2,5.5-6.5c-0.2-2.7-2.3-5-5-5.4c-2.8-0.7-5.7,0.8-6.8,3.4c-0.5,1.3-1.2,1.5-2.4,1.4
			C33.9,446.1,32.2,446.1,30.3,446z M25.6,432.5c0.2-2.5,2.3-4.5,4.9-4.3c2.5,0.2,4.5,2.3,4.3,4.9c-0.1,2.5-2.3,4.4-4.8,4.3
			C27.5,437.2,25.5,435,25.6,432.5L25.6,432.5z M38.8,447.2c0.2-2.5,2.3-4.4,4.9-4.3c2.5,0.2,4.4,2.3,4.3,4.9s-2.3,4.4-4.9,4.3
			c0,0,0,0,0,0C40.5,451.8,38.6,449.7,38.8,447.2L38.8,447.2z"/>
		<path class="st1" d="M28.7,449.8l-1.5,28.4C32.5,473.2,33.4,456.9,28.7,449.8z"/>
		<path class="st1" d="M-2.2,445.6l28.5,1.5C19.1,441.7,5.4,441-2.2,445.6z"/>
		<path class="st2" d="M315.5,268.7c2.1-5.4,4.3-10.9,6.4-16.3l-0.2-0.2c-3.1,3.1-6.2,6.2-9.2,9.3c-0.2,0.3-0.2,0.8-0.1,1.1
			c0.5,1.2,0.3,2.6-0.4,3.7c-1.2,1.7-3.6,2.1-5.3,0.9c-1.7-1.2-2.1-3.6-0.9-5.3c1-1.3,2.7-1.9,4.2-1.4c0.5,0.1,1.2,0.3,1.5,0
			c3.1-3,6.2-6.1,9.3-9.2c-0.1-0.1-0.2-0.1-0.2-0.1c-5.6,2.2-11.3,4.4-16.9,6.7c-0.3,0.2-0.5,0.5-0.5,0.9c-0.1,2.4-0.9,4.6-2.2,6.6
			c-0.5,0.9-1.1,1.7-1.6,2.5l5.8,5.8c0.5-0.4,1-0.7,1.5-1c2.2-1.4,4.4-2.6,7.1-2.7C314.6,270,315.3,269.5,315.5,268.7z"/>
		<path class="st2" d="M303.9,274.2c-1.6-1.8-3.3-3.4-5-5.1c-0.4-0.3-0.9-0.4-1.4-0.4c-0.8,0.1-1.5,0.3-2.2,0.5l8.5,8.5
			c0.2-0.6,0.4-1.3,0.5-1.9C304.4,275.3,304.2,274.7,303.9,274.2z"/>
		<path class="st3" d="M313.1,462.1c3.1-7.2,4.6-11.6,6.5-19.2c3.7-14,3.5-33.1-0.6-56.7c-2.3-13.1-5.3-26.1-9.2-38.8l12.7,10.9
			c0.5,0.4,1.3,0.4,1.8-0.1c0.3-0.3,0.4-0.8,0.2-1.2c-0.1-0.2-0.2-0.4-0.4-0.6l-16-13.8c-0.3-0.3-0.8-0.4-1.2-0.2
			c-0.4,0.1-0.7,0.4-0.8,0.9l-5.7,20.3c-0.2,0.7,0.2,1.4,0.9,1.5c0.7,0.2,1.4-0.2,1.5-0.9l0,0l4.6-16.3c4.3,14.4,17.7,63.6,9.7,94.3
			c-1.4,5.6-3.4,11.1-5.4,16.5c-1.2-4.6-19.5-30.2-27.7-25.4c-6.9,2.9-5.6,13.5-1.2,31c3,11.9,10.6,15.1,15.7,15.1
			c3.6,0,9.4-4.7,13.3-14.6c9.8,18.1,24.5,53.2,24.4,53.6v-4C336.9,512.1,313.5,464.4,313.1,462.1z M298.6,477
			c-3.7,0-10.7-2.8-13.3-13.2c-4.4-17.7-5.2-26.1-0.3-28.1c6-4.6,23.1,16.6,25.5,26.9C306.4,471.6,301.5,477.1,298.6,477L298.6,477z
			"/>
	</g>
	<path class="st4" d="M146.8,87.6c-0.3-0.8-1.2-1.1-2-0.8c-0.7,0.3-1.1,1.2-0.8,1.9c7.9,18.8,13.2,26.1,13.4,26.4
		c0.4,0.5,1,0.7,1.6,0.6c0.2-0.1,0.3-0.1,0.5-0.2c0.7-0.5,0.8-1.4,0.3-2.1c0,0,0,0,0,0C159.8,113.4,154.5,106.1,146.8,87.6z"/>
	<path class="st4" d="M153.7,114.3c0,0-3.9-0.4-14.9-8.3c-0.7-0.5-1.6-0.3-2.1,0.3c-0.5,0.7-0.3,1.6,0.3,2.1
		c12,8.7,16.2,8.9,16.6,8.9c0.1,0,0.3,0,0.4-0.1c0.6-0.2,1.1-0.8,1.1-1.4C155.1,115,154.5,114.3,153.7,114.3
		C153.7,114.3,153.7,114.3,153.7,114.3z"/>
	<path class="st4" d="M167.4,100c-0.8-0.1-1.6,0.4-1.7,1.3c0,0,0,0,0,0c-0.5,3.7-1.4,7.3-2.6,10.8c-0.3,0.8,0.1,1.6,0.9,1.9
		c0,0,0,0,0,0c0.8,0.3,1.6-0.1,1.9-0.9c1.3-3.7,2.2-7.6,2.7-11.5C168.8,100.9,168.3,100.1,167.4,100z"/>
	<path class="st3" d="M318.4,466.9"/>
</g>
</svg>
