<?xml version="1.0" encoding="utf-8"?>
<!-- Generator: Adobe Illustrator 25.4.0, SVG Export Plug-In . SVG Version: 6.00 Build 0)  -->
<svg version="1.1" id="Layer_1" xmlns="http://www.w3.org/2000/svg" xmlns:xlink="http://www.w3.org/1999/xlink" x="0px" y="0px"
	 viewBox="0 0 1263 336.2" style="enable-background:new 0 0 1263 336.2;" xml:space="preserve">
<style type="text/css">
	.st0{fill:#9F8AF9;}
	.st1{fill:#F08F89;}
	.st2{fill:#7B98FB;}
	.st3{fill:#F0CA63;}
	.st4{fill:#00C0B1;}
</style>
<g id="Layer_2_00000127024518380594204340000018347194308304281520_">
	<g id="Layer_1-2">
		<path class="st0" d="M129.5,159.4h0.4h0.1c2.1,0.2,4.1,0.6,6.1,1.3c2.7,0.9,5.3,2.2,7.6,3.9c1.8,1.3,3.4,2.7,4.9,4.3
			c0.1,0.1,0.1,0.1,0.2,0.1l5.8,1c0.3,0,0.6,0.2,0.8,0.4l3.8,3.5l1.7,1.6c0.3,0.2,0.4,0.6,0.2,1c-0.1,0.3-0.3,0.6-0.7,0.6l-4.1,0.6
			l-1.1,0.2l0.7,0.6c0.4,0.3,0.4,0.9,0.1,1.3c0,0-0.1,0.1-0.1,0.1l-0.3,0.3l1.4,1.5c0.4,0.4,0.4,1,0,1.4c0,0,0,0,0,0l-4.2,4.6
			c-0.3,0.4-0.9,0.4-1.3,0.1c0,0,0,0-0.1-0.1l-0.6-0.5l-1-1l-0.2,0.2c-0.2,0.2-0.5,0.3-0.7,0.3c-0.2,0-0.5-0.1-0.7-0.3l-0.7-0.7
			c0,0.4-0.1,0.7-0.1,1.1c-0.2,1.4-0.3,2.8-0.5,4.1c0,0.4-0.2,0.7-0.6,0.9c-0.4,0.1-0.7,0-1-0.3l-5.6-5.4c-0.2-0.2-0.3-0.4-0.3-0.6
			c-0.4-2-0.8-4.1-1.2-6.1c0-0.2-0.2-0.5-0.3-0.6c-3-2.7-5.5-6-7.1-9.8c-1-2.2-1.7-4.6-1.9-7c0-0.3-0.1-0.6-0.1-0.9v-1.2
			C128.9,159.8,129.2,159.5,129.5,159.4z M158.1,175.6L158.1,175.6l-0.2-0.2l-3.7-3.5c-0.1-0.1-0.1-0.1-0.2-0.1l-3.4-0.6
			c0.6,0.8,1.1,1.6,1.7,2.5c0.5,0.8,1,1.7,1.5,2.6L158.1,175.6z M152.1,186c1.1-1.2,2.1-2.3,3.2-3.4c-0.3-0.3-0.5-0.6-0.8-0.9
			l-3.2,3.4L152.1,186z M148.9,184.7c1.7-1.8,3.4-3.6,5.2-5.4l-0.8-0.7l-5.1,5.4L148.9,184.7z M140.6,182.1c0.2,1,0.4,1.9,0.6,2.9
			c0,0.1,0.1,0.2,0.1,0.3l3.9,3.8l0.1,0.1c0.1-0.5,0.1-1,0.2-1.5c0.1-1,0.2-1.9,0.3-2.9c0-0.1,0-0.2-0.1-0.2c-1.8-1-3.5-2.1-5.1-3.3
			l-0.1-0.1C140.5,181.5,140.6,181.8,140.6,182.1z M132.4,168.4c1.6,3.6,3.9,6.8,6.9,9.4c2.2,1.9,4.6,3.6,7.2,5
			c0.1,0.1,0.2,0.1,0.3,0c0,0,0,0,0,0l5.2-5.5c0.1-0.1,0.1-0.2,0-0.2c-2.9-5.7-7.6-10.4-13.4-13.3c-0.7-0.4-1.5-0.6-2.2-0.9h-0.1
			c-0.6,2.1-2.2,3.7-4.3,4.3C132.1,167.5,132.3,167.9,132.4,168.4z M131.3,165.3c1.5-0.3,2.8-1.5,3.1-3c-1.2-0.4-2.5-0.6-3.8-0.8
			C130.8,162.7,131,164,131.3,165.3L131.3,165.3z"/>
		<path class="st0" d="M163.6,190.6c-0.3,0.1-0.6,0.1-0.9-0.1c-0.3-0.3-0.7-0.7-1-1l-4.5-4.4c-0.3-0.3-0.4-0.8-0.1-1.1
			c0.3-0.3,0.8-0.4,1.1-0.1c0,0,0.1,0.1,0.1,0.1l0.8,0.8l4.7,4.6c0.2,0.2,0.3,0.4,0.3,0.7C164.1,190.3,163.9,190.5,163.6,190.6z"/>
		<path class="st0" d="M154.6,187.8l3,3.2l1.9,2c0.3,0.3,0.3,0.8,0.1,1.1c-0.3,0.3-0.8,0.3-1.1,0.1c0,0-0.1-0.1-0.1-0.1l-4.9-5.2
			c-0.2-0.2-0.3-0.4-0.3-0.7c0,0,0-0.1,0-0.1c0.1-0.4,0.5-0.7,0.9-0.6C154.4,187.6,154.5,187.7,154.6,187.8z"/>
		<path class="st0" d="M155.1,186.4c0-0.1,0-0.1,0-0.2c0.1-0.4,0.6-0.6,1-0.5c0.1,0,0.3,0.1,0.4,0.2l3,3.2c0.6,0.7,5.7,5.7,6.3,6.4
			c0.3,0.3,0.3,0.8,0,1.1c0,0,0,0,0,0c-0.1,0.4-0.8,0.3-1.1-0.1c-1.7-1.7-7.7-7.8-9.3-9.5C155.2,186.9,155.1,186.6,155.1,186.4z"/>
		<path class="st0" d="M139.9,166.5c2.2,0,4,1.8,4,4c0,2.2-1.8,4-4,4c-2.2,0-4-1.8-4-4C135.9,168.3,137.7,166.5,139.9,166.5
			L139.9,166.5z M139.9,172.7c1.2,0,2.2-1,2.2-2.2c0-1.2-1-2.1-2.2-2.1s-2.1,1-2.1,2.2C137.7,171.7,138.7,172.6,139.9,172.7
			C139.9,172.7,139.9,172.7,139.9,172.7L139.9,172.7z"/>
		<path class="st1" d="M101.7,294.4l0.4-6.9c4.4-1.7,6-3.9,5.5-7.3c-0.6-3.3-3.7-5.5-7-4.9c-2.3,0.4-4.2,2.1-4.8,4.4
			c-0.9,3.2,0.6,5.6,4.8,7.8l-0.4,8.3c2.3,0.1,4.5,0.3,6.7,0.3c1.2,0,1.9,0.2,2.2,1.6c0.8,2.9,3.6,4.6,6.6,4.1
			c3.3-0.5,5.6-3.5,5.2-6.8c-0.3-2.5-2.2-4.5-4.7-5.1c-2.8-0.7-5.7,0.8-6.8,3.4c-0.5,1.3-1.2,1.5-2.4,1.4
			C105.3,294.5,103.6,294.5,101.7,294.4z M97,280.9c0.2-2.5,2.3-4.5,4.9-4.3c2.5,0.2,4.5,2.3,4.3,4.9c-0.2,2.5-2.3,4.4-4.8,4.3
			C98.8,285.6,96.9,283.5,97,280.9z M110.2,295.6c0.2-2.5,2.4-4.4,4.9-4.2c2.5,0.2,4.4,2.4,4.2,4.9c-0.2,2.5-2.4,4.4-4.9,4.2
			C111.9,300.3,110,298.1,110.2,295.6z"/>
		<path class="st1" d="M100.1,298.2l-1.5,28.4C103.9,321.6,104.8,305.3,100.1,298.2z"/>
		<path class="st1" d="M69.2,294.1l28.5,1.5C90.5,290.1,76.8,289.4,69.2,294.1z"/>
		<path class="st2" d="M1169.3,150.3c2.1-5.4,4.3-10.9,6.4-16.3l-0.2-0.2c-3.1,3.1-6.2,6.2-9.2,9.3c-0.2,0.3-0.2,0.8-0.1,1.1
			c0.5,1.2,0.3,2.6-0.4,3.7c-1.1,1.5-3.2,2-4.8,1.1c-1.8-1-2.5-3.2-1.5-5.1c0.9-1.6,2.8-2.4,4.5-1.8c0.5,0.1,1.2,0.3,1.5,0
			c3.1-3,6.2-6.1,9.3-9.2c-0.1-0.1-0.2-0.1-0.2-0.1c-5.6,2.2-11.3,4.4-16.9,6.7c-0.3,0.2-0.5,0.5-0.5,0.9c-0.1,2.4-0.9,4.6-2.2,6.6
			c-0.5,0.9-1.1,1.7-1.6,2.5l5.8,5.8c0.5-0.4,1-0.7,1.5-1c2.2-1.4,4.4-2.7,7.1-2.7C1168.4,151.6,1169.1,151.1,1169.3,150.3z"/>
		<path class="st2" d="M1157.7,155.8c-1.6-1.8-3.3-3.4-5-5.1c-0.4-0.3-0.9-0.4-1.4-0.4c-0.8,0.1-1.5,0.3-2.2,0.5l8.5,8.5
			c0.2-0.6,0.4-1.3,0.5-1.9C1158.1,156.9,1158,156.3,1157.7,155.8z"/>
		<path class="st3" d="M1239.9,308.5c-6.4-6.4-12.4-11.7-17.9-16c-3-5.6-7.4-12.1-13.1-19.3c-9-11.4-24.4-22.7-45.6-33.7
			c-15-7.8-29.2-13.4-36.5-16.1l16.3-3.5c0.7-0.1,1.1-0.8,1-1.5c-0.1-0.4-0.4-0.8-0.8-0.9c-0.2-0.1-0.5-0.1-0.7,0l-20.6,4.5
			c-0.4,0.1-0.8,0.4-0.9,0.8s-0.1,0.8,0.2,1.2l12.8,16.8c0.4,0.5,1.2,0.7,1.8,0.2c0.5-0.4,0.7-1.2,0.2-1.8l-10.2-13.5
			c14.1,5.3,61.4,24.2,81.1,49.1c4.3,5.4,7.6,10.1,10.2,14.2c-7.9-5.3-14.8-8.3-20.9-8.9c-14-1.4-17.3,3.2-18,6
			c-1.9,7.3,8.9,17.7,25.5,24.8c11.3,4.8,18.6,5.2,21.7,1.1c2.2-2.9,1.8-7.8-0.9-14.3c19.1,15.8,36.3,38.1,36.5,38.4l2-1.5
			C1262.9,334.5,1253,321.6,1239.9,308.5z M1223.4,310.5c-2.2,3-8.9,2.3-18.8-1.9c-16.7-7.1-25.4-16.7-24.1-21.8
			c0.7-2.8,4.7-4.4,10.9-4.4c1.4,0,2.9,0.1,4.4,0.2c7.4,0.7,15.9,5.4,24.2,11.7C1224.7,303,1225.1,308.2,1223.4,310.5z"/>
	</g>
	<g>
		<path class="st4" d="M621,10c-0.3-0.8-1.2-1.1-2-0.8c-0.8,0.3-1.1,1.2-0.8,2c7.9,18.8,13.2,26.1,13.4,26.4c0.4,0.5,1,0.7,1.6,0.5
			c0.2,0,0.3-0.1,0.5-0.2c0.7-0.5,0.8-1.4,0.3-2.1C634,35.7,628.7,28.4,621,10z"/>
		<path class="st4" d="M627.8,36.7c0,0-3.9-0.4-14.9-8.3c-0.7-0.5-1.6-0.3-2.1,0.3c-0.5,0.7-0.3,1.6,0.3,2.1
			c12,8.7,16.2,8.9,16.6,8.9c0.1,0,0.3,0,0.4-0.1c0.6-0.2,1.1-0.8,1.1-1.4C629.3,37.4,628.7,36.7,627.8,36.7z"/>
		<path class="st4" d="M641.6,22.3c-0.8-0.1-1.6,0.5-1.7,1.3c-0.9,6.5-2.5,10.8-2.6,10.8c-0.3,0.8,0.1,1.6,0.9,1.9
			c0.3,0.1,0.7,0.1,1,0c0.4-0.1,0.8-0.5,1-0.9c0.1-0.2,1.7-4.6,2.7-11.5C643,23.2,642.4,22.4,641.6,22.3z"/>
	</g>
</g>
</svg>
