<?xml version="1.0" encoding="utf-8"?>
<!-- Generator: Adobe Illustrator 25.4.0, SVG Export Plug-In . SVG Version: 6.00 Build 0)  -->
<svg version="1.1" id="Layer_1" xmlns="http://www.w3.org/2000/svg" xmlns:xlink="http://www.w3.org/1999/xlink" x="0px" y="0px"
	 viewBox="0 0 31.9 32" style="enable-background:new 0 0 31.9 32;" xml:space="preserve">
<style type="text/css">
	.st0{fill:#E5E6E7;}
	.st1{fill:#2E395A;}
	.st2{fill:#2F3A5B;}
	.st3{fill:#F8A731;}
</style>
<path class="st0" d="M26.6-0.1C26.6-0.1,26.7-0.1,26.6-0.1c0.6,0.1,1.2,0.2,1.7,0.5c0.5,0.2,1,0.5,1.5,0.9c0.6,0.5,1.1,1.1,1.5,1.9
	c0.3,0.6,0.5,1.2,0.5,1.8c0,0.3,0,0.6,0,1c0,6.9,0,13.8,0,20.6c0,0.8-0.2,1.5-0.5,2.2c-0.3,0.8-0.8,1.5-1.5,2
	c-0.8,0.7-1.7,1.1-2.7,1.3c-0.4,0.1-0.8,0.1-1.1,0.1c-6.9,0-13.8,0-20.7,0c-0.6,0-1.3-0.2-1.8-0.4c-0.6-0.3-1.2-0.6-1.7-1.1
	c-0.5-0.4-0.9-0.9-1.2-1.5c-0.3-0.6-0.5-1.2-0.6-1.9C0,27.1,0,26.9,0,26.6c0-7.1,0-14.2,0-21.4C0,4.8,0.1,4.4,0.2,4
	c0.2-0.7,0.6-1.4,1-2C1.7,1.4,2.3,0.9,3,0.5c0.6-0.3,1.2-0.5,1.8-0.6c0.1,0,0.2,0,0.3,0c0,0,0.1,0,0.1,0C12.4-0.1,19.5-0.1,26.6-0.1
	z M29,19c-0.2,0.2-0.3,0.4-0.5,0.6c-0.7,0.8-1.6,1.3-2.6,1.7c-0.3,0.1-0.6,0.2-1,0.3c0.8,0.4,1.3,1,1.7,1.8c0,0,0.1-0.1,0.1-0.1
	c0.7-0.9,1.3-1.9,1.7-2.9C28.7,19.9,28.9,19.5,29,19C29,19,29,19,29,19C29,19,29,19,29,19z M13.3,31.7c0,0,0-0.1,0-0.1
	c0.4-1.9,0.7-3.8,0.9-5.8c0.1-1.3,0.2-2.6,0.2-3.9c0-2.1-0.1-4.1-0.3-6.2c-0.2-1.4-0.4-2.7-0.5-4c-0.1-0.6-0.1-1.2,0-1.8
	c0.1-0.8,0.5-1.2,1.2-1.4c0.7-0.1,1.5-0.1,2.2,0.1c0.7,0.2,1.2,0.6,1.4,1.3c0.1,0.3,0.1,0.6,0.2,0.9c0,0.9-0.1,1.9-0.4,2.8
	c-0.3,1.2-0.7,2.5-1.1,3.7c-0.5,1.7-1.1,3.5-1.5,5.3c-0.3,1.3-0.4,2.6-0.3,3.9c0.1,0.5,0.2,1.1,0.4,1.6c0,0.1,0.1,0.1,0.1,0.1
	c0.1,0,0.2,0,0.3,0c1.1,0,2.1-0.2,3.1-0.4c0,0,0.1,0,0.1,0c0,0-0.1,0-0.1,0c-0.3-0.1-0.6-0.1-0.8-0.2c-0.6-0.2-1-0.6-1.2-1.2
	c-0.2-0.4-0.2-0.9-0.1-1.3c0.1-0.7,0.3-1.4,0.5-2.1c0.4-1.1,0.8-2.3,1.2-3.4c0.3-0.8,0.5-1.7,0.7-2.5c0.1-0.9,0.2-1.7,0.4-2.6
	c0.1-0.5,0.2-0.9,0.4-1.4c0.2-0.5,0.6-0.8,1.1-0.9c0.6-0.1,1.1-0.1,1.7,0c0.7,0.1,1.5,0.3,2.2,0.4c0.8,0.2,1.6,0.4,2.3,0.9
	c0.8,0.5,1.5,1.1,1.9,2c0,0,0,0,0,0c0-0.3,0-0.7,0-1c-0.1-1.4-0.3-2.7-0.8-4c-1.2-3.1-3.2-5.4-6.1-7c-1.8-1-3.8-1.4-5.8-1.5
	c-1.4-0.1-2.8,0-4.2,0.3c-2.8,0.6-5.2,1.9-7.1,4c-2.1,2.4-3.2,5.1-3.4,8.2c-0.1,1,0,2,0.2,3c0.2,1.4,0.7,2.6,1.6,3.7
	c0.8,1,1.7,2,2.7,2.8c1.1,1,2.3,1.8,3.4,2.7c0.8,0.6,1.5,1.2,2.1,2c0.5,0.6,0.9,1.3,1.1,2.1C13.3,31.1,13.3,31.4,13.3,31.7z
	 M21,20.5c0.2,0,0.5,0,0.7-0.1c1-0.3,1.8-0.8,2.4-1.5c0.4-0.4,0.7-0.9,0.9-1.5c0.2-0.6,0.1-1.1-0.3-1.6c-0.3-0.3-0.6-0.5-1-0.6
	c-0.6-0.2-1.3-0.3-1.9-0.3c-0.1,0-0.1,0.1-0.1,0.1c0,0.3-0.1,0.5-0.1,0.8c-0.2,1-0.5,1.9-0.8,2.9c-0.2,0.6-0.3,1.1-0.4,1.7
	c0,0.1,0,0.2,0.1,0.2C20.7,20.5,20.8,20.5,21,20.5z M21.9,26.7c0.1,0,0.2,0,0.4,0c0.9-0.4,1.7-0.9,2.5-1.5c0.1,0,0.1-0.1,0.1-0.2
	c0-0.5-0.2-0.8-0.5-1.1c-0.3-0.3-0.8-0.5-1.2-0.7c-0.9-0.4-1.9-0.7-2.9-0.8c-0.1,0-0.1,0-0.1,0.1c-0.1,0.6-0.2,1.2-0.3,1.8
	c-0.1,0.6-0.2,1.2-0.3,1.8c0,0.1,0,0.1,0.1,0.1C20.4,26.5,21.1,26.7,21.9,26.7z M13.3,31.8C13.3,31.8,13.3,31.8,13.3,31.8
	C13.3,31.8,13.3,31.8,13.3,31.8C13.3,31.8,13.3,31.8,13.3,31.8C13.3,31.8,13.3,31.8,13.3,31.8z"/>
<path class="st1" d="M13.3,31.7c0-0.3,0-0.6-0.1-0.9c-0.2-0.8-0.6-1.4-1.1-2.1c-0.6-0.8-1.4-1.4-2.1-2C8.8,25.9,7.7,25,6.6,24
	c-1-0.9-1.9-1.8-2.7-2.8c-0.8-1.1-1.3-2.4-1.6-3.7c-0.2-1-0.2-2-0.2-3c0.2-3.1,1.3-5.9,3.4-8.2c1.9-2.1,4.3-3.5,7.1-4
	c1.4-0.3,2.8-0.4,4.2-0.3c2,0.1,4,0.6,5.8,1.5c2.9,1.5,4.9,3.9,6.1,7c0.5,1.3,0.7,2.6,0.8,4c0,0.3,0,0.7,0,1c0,0,0,0,0,0
	c-0.4-0.9-1.1-1.5-1.9-2c-0.7-0.4-1.5-0.7-2.3-0.9c-0.7-0.2-1.5-0.3-2.2-0.4c-0.6-0.1-1.1-0.1-1.7,0c-0.5,0.1-0.9,0.4-1.1,0.9
	c-0.2,0.4-0.3,0.9-0.4,1.4c-0.2,0.8-0.3,1.7-0.4,2.6c-0.1,0.9-0.4,1.7-0.7,2.5c-0.4,1.1-0.8,2.2-1.2,3.4c-0.2,0.7-0.4,1.4-0.5,2.1
	c0,0.4,0,0.9,0.1,1.3c0.2,0.6,0.7,0.9,1.2,1.2c0.3,0.1,0.6,0.1,0.8,0.2c0,0,0.1,0,0.1,0c0,0,0,0-0.1,0c-1,0.2-2.1,0.4-3.1,0.4
	c-0.1,0-0.2,0-0.3,0c-0.1,0-0.1,0-0.1-0.1c-0.2-0.5-0.3-1-0.4-1.6c-0.1-1.3,0-2.6,0.3-3.9c0.4-1.8,0.9-3.5,1.5-5.3
	c0.4-1.2,0.8-2.4,1.1-3.7c0.2-0.9,0.4-1.8,0.4-2.8c0-0.3-0.1-0.6-0.2-0.9c-0.2-0.7-0.7-1.1-1.4-1.3c-0.7-0.2-1.4-0.2-2.2-0.1
	c-0.8,0.1-1.2,0.6-1.2,1.4c-0.1,0.6,0,1.2,0,1.8c0.1,1.4,0.4,2.7,0.5,4c0.2,2.1,0.3,4.1,0.3,6.2c0,1.3-0.1,2.6-0.2,3.9
	c-0.2,2-0.5,3.9-0.9,5.8C13.3,31.7,13.3,31.7,13.3,31.7z M13.9,5.4c0,1.1,0.9,2,2,2c1.1,0,2-0.9,2-2c0-1.1-0.9-2-2-2
	C14.8,3.4,13.9,4.3,13.9,5.4z"/>
<path class="st1" d="M21,20.5c-0.2,0-0.3,0-0.4,0c-0.1,0-0.1-0.1-0.1-0.2c0.1-0.6,0.2-1.1,0.4-1.7c0.3-1,0.6-1.9,0.8-2.9
	c0.1-0.2,0.1-0.5,0.1-0.8c0,0,0-0.1,0.1-0.1c0.7,0,1.3,0.1,1.9,0.3c0.4,0.1,0.7,0.3,1,0.6c0.4,0.5,0.4,1,0.3,1.6
	c-0.2,0.6-0.5,1.1-0.9,1.5c-0.7,0.7-1.5,1.3-2.4,1.5C21.4,20.5,21.2,20.5,21,20.5z"/>
<path class="st1" d="M21.9,26.7c-0.8,0-1.5-0.2-2.2-0.6c-0.1,0-0.1-0.1-0.1-0.1c0.1-0.6,0.2-1.2,0.3-1.8c0.1-0.6,0.2-1.2,0.3-1.8
	c0-0.1,0-0.1,0.1-0.1c1,0.2,2,0.4,2.9,0.8c0.4,0.2,0.8,0.4,1.2,0.7c0.3,0.3,0.5,0.6,0.5,1.1c0,0.1,0,0.1-0.1,0.2
	c-0.8,0.6-1.6,1.1-2.5,1.5C22.1,26.8,22,26.7,21.9,26.7z"/>
<path class="st2" d="M29,19c-0.1,0.5-0.3,0.9-0.5,1.3c-0.4,1-1,2-1.7,2.9c0,0-0.1,0.1-0.1,0.1c-0.4-0.8-0.9-1.4-1.7-1.8
	c0.3-0.1,0.7-0.2,1-0.3c1-0.4,1.8-0.9,2.6-1.7C28.7,19.4,28.8,19.2,29,19C29,19,29,19,29,19z"/>
<path class="st1" d="M-3,103.1c0,0.1,0,0.2,0,0.2c0,0.1,0,0.1-0.1,0.2c0-0.1,0-0.1,0-0.2C-3.1,103.3-3,103.2-3,103.1z"/>
<path class="st2" d="M149.4-20.8c0-0.1,0-0.4,0.2-0.3c0.1,0.1,0.1,0.3-0.1,0.4C149.5-20.7,149.4-20.8,149.4-20.8z"/>
<path class="st3" d="M13.9,5.4c0-1.1,0.9-2,2-2c1.1,0,2,0.9,2,2c0,1.1-0.9,2-2,2C14.7,7.4,13.9,6.5,13.9,5.4z"/>
</svg>
