<svg xmlns="http://www.w3.org/2000/svg" viewBox="0 0 194 39" id="el_CI1DLIvDc"><style>@-webkit-keyframes kf_el_uDDQ8T0_m6_an_iepuF4mAD{8.33%{-webkit-transform: translate(126px, 8.539999961853027px) translate(-126px, -8.539999961853027px) translate(-250px, 0px);transform: translate(126px, 8.539999961853027px) translate(-126px, -8.539999961853027px) translate(-250px, 0px);}13.33%{-webkit-transform: translate(126px, 8.539999961853027px) translate(-126px, -8.539999961853027px) translate(5px, 0px);transform: translate(126px, 8.539999961853027px) translate(-126px, -8.539999961853027px) translate(5px, 0px);}20%{-webkit-transform: translate(126px, 8.539999961853027px) translate(-126px, -8.539999961853027px) translate(0px, 0px);transform: translate(126px, 8.539999961853027px) translate(-126px, -8.539999961853027px) translate(0px, 0px);}0%{-webkit-transform: translate(126px, 8.539999961853027px) translate(-126px, -8.539999961853027px) translate(-250px, 0px);transform: translate(126px, 8.539999961853027px) translate(-126px, -8.539999961853027px) translate(-250px, 0px);}100%{-webkit-transform: translate(126px, 8.539999961853027px) translate(-126px, -8.539999961853027px) translate(0px, 0px);transform: translate(126px, 8.539999961853027px) translate(-126px, -8.539999961853027px) translate(0px, 0px);}}@keyframes kf_el_uDDQ8T0_m6_an_iepuF4mAD{8.33%{-webkit-transform: translate(126px, 8.539999961853027px) translate(-126px, -8.539999961853027px) translate(-250px, 0px);transform: translate(126px, 8.539999961853027px) translate(-126px, -8.539999961853027px) translate(-250px, 0px);}13.33%{-webkit-transform: translate(126px, 8.539999961853027px) translate(-126px, -8.539999961853027px) translate(5px, 0px);transform: translate(126px, 8.539999961853027px) translate(-126px, -8.539999961853027px) translate(5px, 0px);}20%{-webkit-transform: translate(126px, 8.539999961853027px) translate(-126px, -8.539999961853027px) translate(0px, 0px);transform: translate(126px, 8.539999961853027px) translate(-126px, -8.539999961853027px) translate(0px, 0px);}0%{-webkit-transform: translate(126px, 8.539999961853027px) translate(-126px, -8.539999961853027px) translate(-250px, 0px);transform: translate(126px, 8.539999961853027px) translate(-126px, -8.539999961853027px) translate(-250px, 0px);}100%{-webkit-transform: translate(126px, 8.539999961853027px) translate(-126px, -8.539999961853027px) translate(0px, 0px);transform: translate(126px, 8.539999961853027px) translate(-126px, -8.539999961853027px) translate(0px, 0px);}}@-webkit-keyframes kf_el_0dUdnbq8C9_an_kYLwJGY-n{16.67%{opacity: 1;}0%{opacity: 1;}100%{opacity: 1;}}@keyframes kf_el_0dUdnbq8C9_an_kYLwJGY-n{16.67%{opacity: 1;}0%{opacity: 1;}100%{opacity: 1;}}@-webkit-keyframes kf_el_0dUdnbq8C9_an_wGT-a8nRi{0%{-webkit-transform: translate(50.619998931884766px, 9.514829635620117px) translate(-50.619998931884766px, -9.514829635620117px) translate(-200px, 0px);transform: translate(50.619998931884766px, 9.514829635620117px) translate(-50.619998931884766px, -9.514829635620117px) translate(-200px, 0px);}5%{-webkit-transform: translate(50.619998931884766px, 9.514829635620117px) translate(-50.619998931884766px, -9.514829635620117px) translate(10px, 0px);transform: translate(50.619998931884766px, 9.514829635620117px) translate(-50.619998931884766px, -9.514829635620117px) translate(10px, 0px);}8.33%{-webkit-transform: translate(50.619998931884766px, 9.514829635620117px) translate(-50.619998931884766px, -9.514829635620117px) translate(-10px, 0px);transform: translate(50.619998931884766px, 9.514829635620117px) translate(-50.619998931884766px, -9.514829635620117px) translate(-10px, 0px);}16.67%{-webkit-transform: translate(50.619998931884766px, 9.514829635620117px) translate(-50.619998931884766px, -9.514829635620117px) translate(0px, 0px);transform: translate(50.619998931884766px, 9.514829635620117px) translate(-50.619998931884766px, -9.514829635620117px) translate(0px, 0px);}100%{-webkit-transform: translate(50.619998931884766px, 9.514829635620117px) translate(-50.619998931884766px, -9.514829635620117px) translate(0px, 0px);transform: translate(50.619998931884766px, 9.514829635620117px) translate(-50.619998931884766px, -9.514829635620117px) translate(0px, 0px);}}@keyframes kf_el_0dUdnbq8C9_an_wGT-a8nRi{0%{-webkit-transform: translate(50.619998931884766px, 9.514829635620117px) translate(-50.619998931884766px, -9.514829635620117px) translate(-200px, 0px);transform: translate(50.619998931884766px, 9.514829635620117px) translate(-50.619998931884766px, -9.514829635620117px) translate(-200px, 0px);}5%{-webkit-transform: translate(50.619998931884766px, 9.514829635620117px) translate(-50.619998931884766px, -9.514829635620117px) translate(10px, 0px);transform: translate(50.619998931884766px, 9.514829635620117px) translate(-50.619998931884766px, -9.514829635620117px) translate(10px, 0px);}8.33%{-webkit-transform: translate(50.619998931884766px, 9.514829635620117px) translate(-50.619998931884766px, -9.514829635620117px) translate(-10px, 0px);transform: translate(50.619998931884766px, 9.514829635620117px) translate(-50.619998931884766px, -9.514829635620117px) translate(-10px, 0px);}16.67%{-webkit-transform: translate(50.619998931884766px, 9.514829635620117px) translate(-50.619998931884766px, -9.514829635620117px) translate(0px, 0px);transform: translate(50.619998931884766px, 9.514829635620117px) translate(-50.619998931884766px, -9.514829635620117px) translate(0px, 0px);}100%{-webkit-transform: translate(50.619998931884766px, 9.514829635620117px) translate(-50.619998931884766px, -9.514829635620117px) translate(0px, 0px);transform: translate(50.619998931884766px, 9.514829635620117px) translate(-50.619998931884766px, -9.514829635620117px) translate(0px, 0px);}}@-webkit-keyframes kf_el_-Qa7X68UYyz_an_FRktAuNCv{0%{-webkit-transform: translate(19.264999389648438px, -0.0000018656329530131188px) rotate(0deg) translate(-19.264999389648438px, 0.0000018656329530131188px);transform: translate(19.264999389648438px, -0.0000018656329530131188px) rotate(0deg) translate(-19.264999389648438px, 0.0000018656329530131188px);}8.33%{-webkit-transform: translate(19.264999389648438px, -0.0000018656329530131188px) rotate(20deg) translate(-19.264999389648438px, 0.0000018656329530131188px);transform: translate(19.264999389648438px, -0.0000018656329530131188px) rotate(20deg) translate(-19.264999389648438px, 0.0000018656329530131188px);}16.67%{-webkit-transform: translate(19.264999389648438px, -0.0000018656329530131188px) rotate(0deg) translate(-19.264999389648438px, 0.0000018656329530131188px);transform: translate(19.264999389648438px, -0.0000018656329530131188px) rotate(0deg) translate(-19.264999389648438px, 0.0000018656329530131188px);}25%{-webkit-transform: translate(19.264999389648438px, -0.0000018656329530131188px) rotate(-20deg) translate(-19.264999389648438px, 0.0000018656329530131188px);transform: translate(19.264999389648438px, -0.0000018656329530131188px) rotate(-20deg) translate(-19.264999389648438px, 0.0000018656329530131188px);}33.33%{-webkit-transform: translate(19.264999389648438px, -0.0000018656329530131188px) rotate(0deg) translate(-19.264999389648438px, 0.0000018656329530131188px);transform: translate(19.264999389648438px, -0.0000018656329530131188px) rotate(0deg) translate(-19.264999389648438px, 0.0000018656329530131188px);}41.67%{-webkit-transform: translate(19.264999389648438px, -0.0000018656329530131188px) rotate(20deg) translate(-19.264999389648438px, 0.0000018656329530131188px);transform: translate(19.264999389648438px, -0.0000018656329530131188px) rotate(20deg) translate(-19.264999389648438px, 0.0000018656329530131188px);}50%{-webkit-transform: translate(19.264999389648438px, -0.0000018656329530131188px) rotate(0deg) translate(-19.264999389648438px, 0.0000018656329530131188px);transform: translate(19.264999389648438px, -0.0000018656329530131188px) rotate(0deg) translate(-19.264999389648438px, 0.0000018656329530131188px);}58.33%{-webkit-transform: translate(19.264999389648438px, -0.0000018656329530131188px) rotate(-20deg) translate(-19.264999389648438px, 0.0000018656329530131188px);transform: translate(19.264999389648438px, -0.0000018656329530131188px) rotate(-20deg) translate(-19.264999389648438px, 0.0000018656329530131188px);}66.67%{-webkit-transform: translate(19.264999389648438px, -0.0000018656329530131188px) rotate(0deg) translate(-19.264999389648438px, 0.0000018656329530131188px);transform: translate(19.264999389648438px, -0.0000018656329530131188px) rotate(0deg) translate(-19.264999389648438px, 0.0000018656329530131188px);}75%{-webkit-transform: translate(19.264999389648438px, -0.0000018656329530131188px) rotate(20deg) translate(-19.264999389648438px, 0.0000018656329530131188px);transform: translate(19.264999389648438px, -0.0000018656329530131188px) rotate(20deg) translate(-19.264999389648438px, 0.0000018656329530131188px);}83.33%{-webkit-transform: translate(19.264999389648438px, -0.0000018656329530131188px) rotate(0deg) translate(-19.264999389648438px, 0.0000018656329530131188px);transform: translate(19.264999389648438px, -0.0000018656329530131188px) rotate(0deg) translate(-19.264999389648438px, 0.0000018656329530131188px);}91.67%{-webkit-transform: translate(19.264999389648438px, -0.0000018656329530131188px) rotate(-20deg) translate(-19.264999389648438px, 0.0000018656329530131188px);transform: translate(19.264999389648438px, -0.0000018656329530131188px) rotate(-20deg) translate(-19.264999389648438px, 0.0000018656329530131188px);}100%{-webkit-transform: translate(19.264999389648438px, -0.0000018656329530131188px) rotate(0deg) translate(-19.264999389648438px, 0.0000018656329530131188px);transform: translate(19.264999389648438px, -0.0000018656329530131188px) rotate(0deg) translate(-19.264999389648438px, 0.0000018656329530131188px);}}@keyframes kf_el_-Qa7X68UYyz_an_FRktAuNCv{0%{-webkit-transform: translate(19.264999389648438px, -0.0000018656329530131188px) rotate(0deg) translate(-19.264999389648438px, 0.0000018656329530131188px);transform: translate(19.264999389648438px, -0.0000018656329530131188px) rotate(0deg) translate(-19.264999389648438px, 0.0000018656329530131188px);}8.33%{-webkit-transform: translate(19.264999389648438px, -0.0000018656329530131188px) rotate(20deg) translate(-19.264999389648438px, 0.0000018656329530131188px);transform: translate(19.264999389648438px, -0.0000018656329530131188px) rotate(20deg) translate(-19.264999389648438px, 0.0000018656329530131188px);}16.67%{-webkit-transform: translate(19.264999389648438px, -0.0000018656329530131188px) rotate(0deg) translate(-19.264999389648438px, 0.0000018656329530131188px);transform: translate(19.264999389648438px, -0.0000018656329530131188px) rotate(0deg) translate(-19.264999389648438px, 0.0000018656329530131188px);}25%{-webkit-transform: translate(19.264999389648438px, -0.0000018656329530131188px) rotate(-20deg) translate(-19.264999389648438px, 0.0000018656329530131188px);transform: translate(19.264999389648438px, -0.0000018656329530131188px) rotate(-20deg) translate(-19.264999389648438px, 0.0000018656329530131188px);}33.33%{-webkit-transform: translate(19.264999389648438px, -0.0000018656329530131188px) rotate(0deg) translate(-19.264999389648438px, 0.0000018656329530131188px);transform: translate(19.264999389648438px, -0.0000018656329530131188px) rotate(0deg) translate(-19.264999389648438px, 0.0000018656329530131188px);}41.67%{-webkit-transform: translate(19.264999389648438px, -0.0000018656329530131188px) rotate(20deg) translate(-19.264999389648438px, 0.0000018656329530131188px);transform: translate(19.264999389648438px, -0.0000018656329530131188px) rotate(20deg) translate(-19.264999389648438px, 0.0000018656329530131188px);}50%{-webkit-transform: translate(19.264999389648438px, -0.0000018656329530131188px) rotate(0deg) translate(-19.264999389648438px, 0.0000018656329530131188px);transform: translate(19.264999389648438px, -0.0000018656329530131188px) rotate(0deg) translate(-19.264999389648438px, 0.0000018656329530131188px);}58.33%{-webkit-transform: translate(19.264999389648438px, -0.0000018656329530131188px) rotate(-20deg) translate(-19.264999389648438px, 0.0000018656329530131188px);transform: translate(19.264999389648438px, -0.0000018656329530131188px) rotate(-20deg) translate(-19.264999389648438px, 0.0000018656329530131188px);}66.67%{-webkit-transform: translate(19.264999389648438px, -0.0000018656329530131188px) rotate(0deg) translate(-19.264999389648438px, 0.0000018656329530131188px);transform: translate(19.264999389648438px, -0.0000018656329530131188px) rotate(0deg) translate(-19.264999389648438px, 0.0000018656329530131188px);}75%{-webkit-transform: translate(19.264999389648438px, -0.0000018656329530131188px) rotate(20deg) translate(-19.264999389648438px, 0.0000018656329530131188px);transform: translate(19.264999389648438px, -0.0000018656329530131188px) rotate(20deg) translate(-19.264999389648438px, 0.0000018656329530131188px);}83.33%{-webkit-transform: translate(19.264999389648438px, -0.0000018656329530131188px) rotate(0deg) translate(-19.264999389648438px, 0.0000018656329530131188px);transform: translate(19.264999389648438px, -0.0000018656329530131188px) rotate(0deg) translate(-19.264999389648438px, 0.0000018656329530131188px);}91.67%{-webkit-transform: translate(19.264999389648438px, -0.0000018656329530131188px) rotate(-20deg) translate(-19.264999389648438px, 0.0000018656329530131188px);transform: translate(19.264999389648438px, -0.0000018656329530131188px) rotate(-20deg) translate(-19.264999389648438px, 0.0000018656329530131188px);}100%{-webkit-transform: translate(19.264999389648438px, -0.0000018656329530131188px) rotate(0deg) translate(-19.264999389648438px, 0.0000018656329530131188px);transform: translate(19.264999389648438px, -0.0000018656329530131188px) rotate(0deg) translate(-19.264999389648438px, 0.0000018656329530131188px);}}#el_CI1DLIvDc *{-webkit-animation-duration: 6s;animation-duration: 6s;-webkit-animation-iteration-count: infinite;animation-iteration-count: infinite;-webkit-animation-timing-function: cubic-bezier(0, 0, 1, 1);animation-timing-function: cubic-bezier(0, 0, 1, 1);}#el_m5b_xEQ2ak{fill: #2e395a;}#el_tcEwwYFF6r{fill: #2e395a;}#el_-M33T7_0a7{fill: #2e395a;}#el_U2EejNEuT2{fill: #2e395a;}#el_rxaBUkHXmP{fill: #2e395a;}#el_x0J59y_OCp{fill: #2e395a;}#el_2f3lrkB_V5{fill: #2e395a;}#el_nowqbZyJU4{fill: #2e395a;}#el_wdXEuWElBp{fill: #2e395a;}#el_hl78KCBrlS{fill: #2e395a;}#el_APImOgahRh{fill: #2e395a;}#el_2ZUGfZID2r{fill: #2e395a;}#el_eagxA0TC8xP{fill: #e5e6e7;}#el_qU69LP9C0JJ{fill: #2e395a;}#el_3yBCAQwrhwc{fill: #ffdb45;}#el_-Qa7X68UYyz_an_FRktAuNCv{-webkit-animation-fill-mode: none;animation-fill-mode: none;-webkit-transform: translate(19.264999389648438px, -0.0000018656329530131188px) rotate(0deg) translate(-19.264999389648438px, 0.0000018656329530131188px);transform: translate(19.264999389648438px, -0.0000018656329530131188px) rotate(0deg) translate(-19.264999389648438px, 0.0000018656329530131188px);-webkit-animation-name: kf_el_-Qa7X68UYyz_an_FRktAuNCv;animation-name: kf_el_-Qa7X68UYyz_an_FRktAuNCv;-webkit-animation-timing-function: cubic-bezier(0, 0, 1, 1);animation-timing-function: cubic-bezier(0, 0, 1, 1);}#el_0dUdnbq8C9_an_wGT-a8nRi{-webkit-transform: translate(50.619998931884766px, 9.514829635620117px) translate(-50.619998931884766px, -9.514829635620117px) translate(-150px, 0px);transform: translate(50.619998931884766px, 9.514829635620117px) translate(-50.619998931884766px, -9.514829635620117px) translate(-150px, 0px);-webkit-animation-fill-mode: none;animation-fill-mode: none;-webkit-animation-name: kf_el_0dUdnbq8C9_an_wGT-a8nRi;animation-name: kf_el_0dUdnbq8C9_an_wGT-a8nRi;-webkit-animation-timing-function: cubic-bezier(0, 0, 1, 1);animation-timing-function: cubic-bezier(0, 0, 1, 1);}#el_0dUdnbq8C9{-webkit-animation-fill-mode: none;animation-fill-mode: none;opacity: 1;-webkit-animation-name: kf_el_0dUdnbq8C9_an_kYLwJGY-n;animation-name: kf_el_0dUdnbq8C9_an_kYLwJGY-n;-webkit-animation-timing-function: cubic-bezier(0, 0, 1, 1);animation-timing-function: cubic-bezier(0, 0, 1, 1);}#el_uDDQ8T0_m6_an_iepuF4mAD{-webkit-animation-fill-mode: none;animation-fill-mode: none;-webkit-transform: translate(126px, 8.539999961853027px) translate(-126px, -8.539999961853027px) translate(-180px, 0px);transform: translate(126px, 8.539999961853027px) translate(-126px, -8.539999961853027px) translate(-180px, 0px);-webkit-animation-name: kf_el_uDDQ8T0_m6_an_iepuF4mAD;animation-name: kf_el_uDDQ8T0_m6_an_iepuF4mAD;-webkit-animation-timing-function: cubic-bezier(0, 0, 1, 1);animation-timing-function: cubic-bezier(0, 0, 1, 1);}</style><defs/><title>IBrandAfrica_1</title><g id="el_gWe5Xa0IE8" data-name="Layer 2"><g id="el_uDDQ8T0_m6_an_iepuF4mAD" data-animator-group="true" data-animator-type="0"><g id="el_uDDQ8T0_m6"><path d="M130.28,20.78l-2.63,5.87H126l7.58-17h1.88l7.9,17h-1.74L139,20.78Zm8.16-1.21c-2.3-5.05-3.48-7.47-3.89-8.61h0c-.5,1.28-1.83,4.29-3.68,8.61Z" id="el_m5b_xEQ2ak"/><path d="M146.75,26.65v-11h-2.54V14.52h2.54V12.8c0-2,.7-4.26,4-4.26a7.13,7.13,0,0,1,1.44.16V9.87a8.56,8.56,0,0,0-1.59-.15c-1.74,0-2.39,1-2.39,3.13v1.67h3.21v1.14h-3.21v11Z" id="el_tcEwwYFF6r"/><path d="M153.91,17.82c0-2,0-2.91,0-3.3h1.44c0,.39.06,1.17.06,2.72a5.63,5.63,0,0,1,5.13-3v1.31c-3.07.17-5.13,1.92-5.13,4.8v6.31h-1.47Z" id="el_-M33T7_0a7"/><path d="M163.22,8.78h1.47v2.35h-1.47Zm0,5.74h1.47V26.65h-1.47Z" id="el_U2EejNEuT2"/><path d="M180.37,23.08c-.71,2.14-2.42,3.86-5.72,3.86-3.68,0-6.3-2.26-6.3-6.31a6.12,6.12,0,0,1,6.48-6.4c3.74,0,5.27,2.19,5.54,3.88h-1.5a3.86,3.86,0,0,0-4.07-2.74c-3.12,0-4.89,2.18-4.89,5.22,0,2.88,1.65,5.21,4.74,5.21a4.11,4.11,0,0,0,4.22-2.72Z" id="el_rxaBUkHXmP"/><path d="M194,24.34a11.34,11.34,0,0,0,.21,2.31H192.8a6.72,6.72,0,0,1-.26-1.87c-.5.9-1.8,2.16-4.83,2.16-3.42,0-4.9-1.82-4.9-3.64,0-2.67,2.51-3.88,6.93-3.88h2.8V18.19c0-1.22-.44-2.84-3.8-2.84-3,0-3.42,1.28-3.75,2.28h-1.47c.18-1.34,1.18-3.4,5.25-3.4,3.36,0,5.24,1.17,5.24,3.83Zm-1.44-3.88h-2.89c-3.27,0-5.3.71-5.3,2.79,0,1.53,1.32,2.57,3.38,2.57,4.22,0,4.81-2.3,4.81-4.92Z" id="el_x0J59y_OCp"/></g></g><g id="el_0dUdnbq8C9_an_wGT-a8nRi" data-animator-group="true" data-animator-type="0"><g id="el_0dUdnbq8C9"><path d="M50.62,11.89V9.53h3.54v2.36Zm0,14.76V14h3.54V26.65Z" id="el_2f3lrkB_V5"/><path d="M57.87,26.65V9.53h5.18a8.51,8.51,0,0,1,4.84,1.17A3.77,3.77,0,0,1,69.59,14a3.83,3.83,0,0,1-.67,2.25,5.77,5.77,0,0,1-2,1.71,5.05,5.05,0,0,1,2.31,1.61,4.19,4.19,0,0,1,.75,2.55,4,4,0,0,1-1.53,3.47,8.16,8.16,0,0,1-4.75,1.11Zm3.88-10h1.58A2.22,2.22,0,0,0,65,16a2.36,2.36,0,0,0,.6-1.73A2.24,2.24,0,0,0,65,12.55,2.92,2.92,0,0,0,63,12H61.75Zm0,7.51h1.69a2.49,2.49,0,0,0,1.85-.59,2.5,2.5,0,0,0,.59-1.86,2.58,2.58,0,0,0-.66-2,3.23,3.23,0,0,0-2.2-.6H61.75Z" id="el_nowqbZyJU4"/><path d="M72.79,26.65V14h3.53v1.71a4.59,4.59,0,0,1,1.6-1.39A4.7,4.7,0,0,1,80,13.88h.35v2.64a2.64,2.64,0,0,0-.52-.13,4,4,0,0,0-.62,0,3.69,3.69,0,0,0-2.13.54,1.74,1.74,0,0,0-.79,1.5v8.26Z" id="el_wdXEuWElBp"/><path d="M88.38,25.23a6.25,6.25,0,0,1-1.84,1.17,5.39,5.39,0,0,1-2.08.41,3.28,3.28,0,0,1-2.26-.72A2.64,2.64,0,0,1,81.4,24a3.75,3.75,0,0,1,1.47-3,19.58,19.58,0,0,1,5.41-2.64V17.05a1.18,1.18,0,0,0-.3-.87,1.23,1.23,0,0,0-.88-.29,2.05,2.05,0,0,0-1.16.28.89.89,0,0,0-.42.78v.7H82a1,1,0,0,0,0-.16,1.49,1.49,0,0,1,0-.17,3,3,0,0,1,1.49-2.6,6.54,6.54,0,0,1,3.77-1,5.36,5.36,0,0,1,3.52,1,3.68,3.68,0,0,1,1.15,3V23c0,.84,0,1.58.09,2.21a6.13,6.13,0,0,0,.25,1.4h-3.5a2,2,0,0,1-.22-.59A5.12,5.12,0,0,1,88.38,25.23Zm-.1-1.73V20.22a8.75,8.75,0,0,0-2.57,1.52,2.26,2.26,0,0,0-.7,1.69,1.32,1.32,0,0,0,.28.91,1,1,0,0,0,.79.32,2.62,2.62,0,0,0,1.22-.32A2.59,2.59,0,0,0,88.28,23.5Z" id="el_hl78KCBrlS"/><path d="M95.08,26.65V14h3.53v1.39a7.86,7.86,0,0,1,2-1.16,5.62,5.62,0,0,1,2-.39,2.67,2.67,0,0,1,1.85.55,2.14,2.14,0,0,1,.62,1.67V26.65h-3.5V17.07a1.16,1.16,0,0,0-.2-.79,1,1,0,0,0-.73-.2,2.47,2.47,0,0,0-1,.26,5.23,5.23,0,0,0-1.07.68V26.6Z" id="el_APImOgahRh"/><path d="M114.49,25.65a4.53,4.53,0,0,1-1.51.88,5.58,5.58,0,0,1-1.83.28,3.37,3.37,0,0,1-2.33-.71A2.62,2.62,0,0,1,108,24V17a3.1,3.1,0,0,1,.86-2.36,3.54,3.54,0,0,1,2.51-.81,4.45,4.45,0,0,1,1.6.3,5.5,5.5,0,0,1,1.5.89V9.53H118V26.65h-3.5Zm0-1.41V16.37a3.29,3.29,0,0,0-.76-.4,2,2,0,0,0-.72-.13,1.44,1.44,0,0,0-1,.35,1.27,1.27,0,0,0-.38,1v6.52a1.1,1.1,0,0,0,.29.85,1.4,1.4,0,0,0,.93.26,2.61,2.61,0,0,0,.85-.13A3,3,0,0,0,114.49,24.24Z" id="el_2ZUGfZID2r"/></g></g><g id="el_-Qa7X68UYyz_an_FRktAuNCv" data-animator-group="true" data-animator-type="1"><g id="el_-Qa7X68UYyz"><path id="el_eagxA0TC8xP" d="M38.53,5.72v27.6s-.05,0-.06.07,0,.27-.08.4a6.91,6.91,0,0,1-1.52,2.91,6.75,6.75,0,0,1-2.6,1.84,5.77,5.77,0,0,1-2.2.49H6.69a6.27,6.27,0,0,1-1.37-.17A6.94,6.94,0,0,1,3.22,38,7.27,7.27,0,0,1,1.6,36.58a7.05,7.05,0,0,1-1-1.7A6.16,6.16,0,0,1,0,32.46V6.58a4.76,4.76,0,0,1,.07-.75A6.86,6.86,0,0,1,.83,3.6a7.43,7.43,0,0,1,1.1-1.5A6.73,6.73,0,0,1,4.13.58,6.39,6.39,0,0,1,6.71,0H31.79a5.55,5.55,0,0,1,1,.09,6.68,6.68,0,0,1,3.46,1.64,6.45,6.45,0,0,1,1.63,2.14,6.52,6.52,0,0,1,.59,1.76S38.48,5.71,38.53,5.72ZM35.11,23.14c-.19.23-.36.47-.57.69a8.56,8.56,0,0,1-3.1,2,11.22,11.22,0,0,1-1.16.42,4.55,4.55,0,0,1,2,2.15l.12-.14a14.49,14.49,0,0,0,2-3.32,12.78,12.78,0,0,0,.67-1.82s0,0,0,0S35.12,23.12,35.11,23.14Zm-19,15.4a.74.74,0,0,0,0-.14,64.09,64.09,0,0,0,1.12-7c.16-1.55.26-3.11.29-4.67a57.13,57.13,0,0,0-.36-7.4c-.2-1.66-.43-3.33-.64-5a9.94,9.94,0,0,1-.05-2.18A1.73,1.73,0,0,1,18,10.48a5.8,5.8,0,0,1,2.62.1,2.27,2.27,0,0,1,1.6,1.33,3.45,3.45,0,0,1,.28,1.27,11,11,0,0,1-.34,3c-.35,1.51-.82,3-1.29,4.46-.64,2.05-1.31,4.1-1.76,6.21a18.19,18.19,0,0,0-.5,4.47,8.53,8.53,0,0,0,.49,2.7.2.2,0,0,0,.23.16A24.34,24.34,0,0,0,23,33.73a4.08,4.08,0,0,0,.63-.15l-.17-.06c-.34-.11-.7-.16-1-.29a2.38,2.38,0,0,1-1.49-1.4,3.67,3.67,0,0,1-.17-1.58,11.85,11.85,0,0,1,.57-2.56c.44-1.37,1-2.72,1.44-4.08a18.78,18.78,0,0,0,.8-3c.16-1,.27-2.09.47-3.12a6.25,6.25,0,0,1,.52-1.69,2,2,0,0,1,1.25-1.06,4.92,4.92,0,0,1,1.87-.08,24,24,0,0,1,2.67.46A10.16,10.16,0,0,1,33,16a6,6,0,0,1,2.8,2.72s0,0,0,0v-.14a16.2,16.2,0,0,0-1.06-5.93,15.22,15.22,0,0,0-8.09-8.74,17.11,17.11,0,0,0-5.93-1.46,19,19,0,0,0-6,.46,15.31,15.31,0,0,0-10,7.5,16.37,16.37,0,0,0-2.14,7.51,15.57,15.57,0,0,0,.51,4.76,10.29,10.29,0,0,0,2.05,3.81,24.92,24.92,0,0,0,3.56,3.48C10.07,31,11.43,32,12.72,33.11a12.34,12.34,0,0,1,2.42,2.58A5.61,5.61,0,0,1,16,37.76,6.9,6.9,0,0,1,16.12,38.54ZM25.35,25a2.63,2.63,0,0,0,.74-.08,6,6,0,0,0,3-1.78,4.56,4.56,0,0,0,1.17-1.91,1.94,1.94,0,0,0-.34-1.92,2.74,2.74,0,0,0-1.11-.72,7.32,7.32,0,0,0-2.37-.4c-.11,0-.1.06-.11.12-.06.4-.14.79-.23,1.17-.3,1.21-.68,2.39-1,3.59-.14.56-.26,1.13-.37,1.7,0,.13,0,.2.14.21Zm1.16,7.52a1.46,1.46,0,0,0,.42,0A15.45,15.45,0,0,0,30,30.65s.08-.07.08-.13a1.62,1.62,0,0,0,0-.38,1.82,1.82,0,0,0-.62-1,5.56,5.56,0,0,0-1.56-1,14.3,14.3,0,0,0-3.34-.94c-.12,0-.17,0-.18.13-.12.85-.25,1.7-.38,2.54-.08.58-.16,1.17-.25,1.75,0,.08,0,.13.08.18A6.31,6.31,0,0,0,26.51,32.52ZM16.1,38.64v0h0Z"/><path id="el_qU69LP9C0JJ" d="M16.12,38.54a6.9,6.9,0,0,0-.09-.78,5.61,5.61,0,0,0-.89-2.07,12.34,12.34,0,0,0-2.42-2.58C11.43,32,10.07,31,8.78,29.94a24.92,24.92,0,0,1-3.56-3.48,10.29,10.29,0,0,1-2-3.81,15.57,15.57,0,0,1-.51-4.76A16.37,16.37,0,0,1,4.8,10.38a15.31,15.31,0,0,1,10-7.5,19,19,0,0,1,6-.46,17.11,17.11,0,0,1,5.93,1.46,15.22,15.22,0,0,1,8.09,8.74,16.2,16.2,0,0,1,1.06,5.93v.14s0,0,0,0A6,6,0,0,0,33,16a10.16,10.16,0,0,0-2.63-.87,24,24,0,0,0-2.67-.46,4.92,4.92,0,0,0-1.87.08,2,2,0,0,0-1.25,1.06A6.25,6.25,0,0,0,24,17.46c-.2,1-.31,2.08-.47,3.12a18.78,18.78,0,0,1-.8,3c-.46,1.36-1,2.71-1.44,4.08a11.85,11.85,0,0,0-.57,2.56,3.67,3.67,0,0,0,.17,1.58,2.38,2.38,0,0,0,1.49,1.4c.33.13.69.18,1,.29l.17.06a4.08,4.08,0,0,1-.63.15,24.34,24.34,0,0,1-3.62.43.2.2,0,0,1-.23-.16,8.53,8.53,0,0,1-.49-2.7,18.19,18.19,0,0,1,.5-4.47c.45-2.11,1.12-4.16,1.76-6.21.47-1.47.94-2.95,1.29-4.46a11,11,0,0,0,.34-3,3.45,3.45,0,0,0-.28-1.27,2.27,2.27,0,0,0-1.6-1.33,5.8,5.8,0,0,0-2.62-.1,1.73,1.73,0,0,0-1.52,1.66,9.94,9.94,0,0,0,.05,2.18c.21,1.66.44,3.33.64,5a57.13,57.13,0,0,1,.36,7.4c0,1.56-.13,3.12-.29,4.67a64.09,64.09,0,0,1-1.12,7A.74.74,0,0,1,16.12,38.54ZM19.19,4.29a2.39,2.39,0,1,0,2.38,2.38A2.39,2.39,0,0,0,19.19,4.29Zm6.9,20.63a6,6,0,0,0,3-1.78,4.56,4.56,0,0,0,1.17-1.91,1.94,1.94,0,0,0-.34-1.92,2.74,2.74,0,0,0-1.11-.72,7.32,7.32,0,0,0-2.37-.4c-.11,0-.1.06-.11.12-.06.4-.14.79-.23,1.17-.3,1.21-.68,2.39-1,3.59-.14.56-.26,1.13-.37,1.7,0,.13,0,.2.14.21l.45,0A2.63,2.63,0,0,0,26.09,24.92Zm.84,7.56A15.45,15.45,0,0,0,30,30.65s.08-.07.08-.13a1.62,1.62,0,0,0,0-.38,1.82,1.82,0,0,0-.62-1,5.56,5.56,0,0,0-1.56-1,14.3,14.3,0,0,0-3.34-.94c-.12,0-.17,0-.18.13-.12.85-.25,1.7-.38,2.54-.08.58-.16,1.17-.25,1.75,0,.08,0,.13.08.18a6.31,6.31,0,0,0,2.69.69A1.46,1.46,0,0,0,26.93,32.48Zm8.18-9.34c-.19.23-.36.47-.57.69a8.56,8.56,0,0,1-3.1,2,11.22,11.22,0,0,1-1.16.42,4.55,4.55,0,0,1,2,2.15l.12-.14a14.49,14.49,0,0,0,2-3.32,12.78,12.78,0,0,0,.67-1.82Z"/><path id="el_3yBCAQwrhwc" d="M19.19,4.29A2.39,2.39,0,1,1,16.8,6.66,2.39,2.39,0,0,1,19.19,4.29Z"/></g></g></g></svg>